<svg width="21" height="21" viewBox="0 0 21 21" fill="none" xmlns="http://www.w3.org/2000/svg">
<path fill-rule="evenodd" clip-rule="evenodd" d="M9.01174 3.3584H12.4391C13.9706 3.35839 15.1836 3.35837 16.1329 3.48601C17.11 3.61737 17.9008 3.89413 18.5244 4.51777C19.148 5.1414 19.4248 5.93219 19.5561 6.90921C19.6838 7.85856 19.6838 9.07159 19.6838 10.6031V10.6971C19.6838 12.2285 19.6838 13.4416 19.5561 14.3909C19.4248 15.3679 19.148 16.1587 18.5244 16.7824C17.9008 17.406 17.11 17.6828 16.1329 17.8141C15.1836 17.9418 13.9706 17.9417 12.4391 17.9417H9.01175C7.48028 17.9417 6.26725 17.9418 5.3179 17.8141C4.34089 17.6828 3.5501 17.406 2.92646 16.7824C2.30282 16.1587 2.02606 15.3679 1.8947 14.3909C1.76707 13.4416 1.76708 12.2285 1.76709 10.6971V10.6031C1.76708 9.07159 1.76707 7.85856 1.8947 6.90921C2.02606 5.93219 2.30282 5.1414 2.92646 4.51777C3.5501 3.89413 4.34089 3.61737 5.3179 3.48601C6.26725 3.35837 7.48028 3.35839 9.01174 3.3584ZM5.48446 4.72486C4.64606 4.83759 4.16302 5.04898 3.81034 5.40165C3.45767 5.75433 3.24628 6.23737 3.13356 7.07577C3.01842 7.93216 3.01709 9.06105 3.01709 10.6501C3.01709 12.2391 3.01842 13.368 3.13356 14.2244C3.24628 15.0628 3.45767 15.5458 3.81034 15.8985C4.16302 16.2512 4.64606 16.4625 5.48446 16.5753C6.34085 16.6904 7.46974 16.6917 9.05876 16.6917H12.3921C13.9811 16.6917 15.11 16.6904 15.9664 16.5753C16.8048 16.4625 17.2878 16.2512 17.6405 15.8985C17.9932 15.5458 18.2046 15.0628 18.3173 14.2244C18.4324 13.368 18.4338 12.2391 18.4338 10.6501C18.4338 9.06105 18.4324 7.93216 18.3173 7.07577C18.2046 6.23737 17.9932 5.75433 17.6405 5.40165C17.2878 5.04898 16.8048 4.83759 15.9664 4.72486C15.11 4.60973 13.9811 4.6084 12.3921 4.6084H9.05876C7.46974 4.6084 6.34085 4.60973 5.48446 4.72486ZM5.24529 6.91662C5.46626 6.65144 5.86037 6.61562 6.12554 6.83659L7.92462 8.33583C8.70208 8.98372 9.24187 9.43208 9.69758 9.72517C10.1387 10.0089 10.4379 10.1041 10.7254 10.1041C11.013 10.1041 11.3121 10.0089 11.7533 9.72517C12.209 9.43208 12.7488 8.98372 13.5262 8.33583L15.3253 6.83659C15.5905 6.61562 15.9846 6.65144 16.2056 6.91662C16.4265 7.18179 16.3907 7.57589 16.1255 7.79687L14.2951 9.32221C13.5565 9.93776 12.9578 10.4367 12.4294 10.7765C11.879 11.1305 11.343 11.3541 10.7254 11.3541C10.1079 11.3541 9.57182 11.1305 9.0214 10.7765C8.49302 10.4367 7.89435 9.93776 7.15572 9.32222L5.32531 7.79687C5.06014 7.57589 5.02431 7.18179 5.24529 6.91662Z" fill="#777777"/>
</svg>
