<svg xmlns="http://www.w3.org/2000/svg" width="375" height="250" viewBox="0 0 375 250" fill="none">
<path d="M121.31 34.5085C120.238 34.7715 119.277 35.2505 118.456 35.886C118.169 36.1085 117.855 36.293 117.521 36.4295L113.802 21.272C113.528 20.156 112.402 19.4735 111.286 19.7475L95.5147 23.617L95.9537 25.407C96.0552 25.8205 96.2377 26.209 96.4867 26.5545C96.9877 27.249 97.3682 28.047 97.5852 28.9295C98.5152 32.72 96.1167 36.5475 92.2547 37.3335C88.8517 38.026 85.3802 35.991 84.3197 32.6845C83.9462 31.519 83.9032 30.3415 84.1252 29.2365C84.2242 28.743 84.2267 28.2355 84.1067 27.7465L83.7987 26.4915L67.8077 30.361C66.4377 30.697 65.5992 32.0805 65.9357 33.4505L69.3692 47.5115L68.2797 47.779C68.1562 47.8095 68.0297 47.8365 67.9022 47.8585C66.3122 47.205 64.5087 47.03 62.7112 47.471C58.2027 48.577 55.4447 53.1285 56.5507 57.6375C57.6567 62.1465 62.2082 64.904 66.7167 63.798C68.1912 63.436 69.4767 62.704 70.5032 61.727C70.7087 61.627 70.9232 61.547 71.1467 61.4925L72.5447 61.1495L76.3942 76.839C76.7302 78.209 78.1137 79.0475 79.4837 78.7115L123.125 68.004C124.241 67.73 124.924 66.6035 124.65 65.488L120.73 49.5135C121.016 49.515 121.302 49.5475 121.583 49.608C123.078 49.93 124.696 49.8155 126.265 49.134C129.378 47.7815 131.248 44.445 130.798 41.06C130.179 36.402 125.719 33.427 121.31 34.5085Z" fill="#EBEBEB"/>
<path d="M315.642 118.312C316.273 118.605 316.934 118.748 317.588 118.759C317.817 118.763 318.044 118.795 318.262 118.86L314.118 127.781C313.813 128.438 314.098 129.218 314.755 129.523L324.038 133.835L324.528 132.781C324.641 132.538 324.704 132.275 324.718 132.007C324.745 131.468 324.872 130.925 325.114 130.406C326.15 128.175 328.838 127.237 331.048 128.372C332.995 129.373 333.9 131.742 333.119 133.786C332.843 134.507 332.4 135.103 331.856 135.559C331.612 135.763 331.411 136.012 331.278 136.299L330.935 137.038L340.326 141.436C341.132 141.811 342.09 141.461 342.464 140.654L346.317 132.384L346.958 132.682C347.031 132.716 347.103 132.752 347.175 132.792C347.699 133.74 348.518 134.537 349.576 135.028C352.229 136.261 355.38 135.109 356.613 132.455C357.845 129.802 356.693 126.651 354.04 125.418C353.172 125.015 352.251 124.869 351.361 124.945C351.221 124.913 351.084 124.868 350.952 124.807L350.129 124.425L354.419 115.19C354.793 114.384 354.443 113.426 353.637 113.052L327.949 101.12C327.292 100.815 326.513 101.1 326.208 101.757L321.84 111.159C321.7 111.046 321.573 110.917 321.458 110.777C320.85 110.029 320.009 109.448 318.969 109.165C316.904 108.604 314.669 109.508 313.557 111.35C312.025 113.886 313.047 117.107 315.642 118.312Z" fill="#EBEBEB"/>
<path d="M331.353 218.214C331.763 217.855 332.076 217.426 332.291 216.96C332.366 216.797 332.462 216.645 332.577 216.509L337.656 222.311C338.03 222.738 338.68 222.782 339.107 222.408L345.144 217.123L344.544 216.438C344.405 216.279 344.237 216.151 344.049 216.056C343.671 215.865 343.323 215.602 343.027 215.264C341.757 213.813 341.938 211.588 343.453 210.365C344.788 209.287 346.773 209.39 347.991 210.599C348.42 211.025 348.706 211.532 348.86 212.067C348.929 212.306 349.043 212.529 349.207 212.717L349.628 213.197L355.761 207.862C356.286 207.403 356.339 206.606 355.88 206.081L351.175 200.695L351.592 200.33C351.64 200.289 351.689 200.248 351.74 200.21C352.586 200.135 353.417 199.801 354.105 199.199C355.831 197.688 356.005 195.064 354.494 193.338C352.983 191.612 350.36 191.438 348.634 192.949C348.069 193.443 347.672 194.056 347.444 194.718C347.377 194.809 347.301 194.893 347.215 194.968L346.68 195.436L341.423 189.431C340.964 188.906 340.166 188.853 339.642 189.312L322.936 203.936C322.509 204.31 322.466 204.959 322.84 205.386L328.193 211.501C328.067 211.566 327.934 211.616 327.797 211.654C327.068 211.852 326.385 212.271 325.852 212.927C324.794 214.228 324.733 216.117 325.7 217.499C327.032 219.401 329.665 219.691 331.353 218.214Z" fill="#F5F5F5"/>
<path d="M271.799 45.32C270.96 45.0875 270.115 45.046 269.305 45.1665C269.022 45.2085 268.735 45.2145 268.453 45.1795L271.743 33.3235C271.985 32.451 271.474 31.547 270.601 31.3045L258.265 27.881L257.877 29.281C257.787 29.6045 257.762 29.942 257.801 30.2755C257.877 30.946 257.831 31.6415 257.64 32.332C256.817 35.297 253.691 37.003 250.733 36.054C248.126 35.2175 246.524 32.479 247.071 29.7965C247.263 28.851 247.688 28.025 248.267 27.3505C248.526 27.0495 248.723 26.7015 248.829 26.319L249.102 25.3375L236.615 21.8295C235.543 21.532 234.433 22.16 234.136 23.2315L231.072 34.2235L230.22 33.987C230.124 33.96 230.026 33.9305 229.93 33.896C229.089 32.8335 227.916 32.0175 226.511 31.627C222.984 30.6485 219.332 32.714 218.353 36.24C217.375 39.7665 219.44 43.4185 222.967 44.3975C224.12 44.7175 225.286 44.71 226.369 44.4345C226.549 44.445 226.727 44.473 226.902 44.5215L227.995 44.825L224.59 57.097C224.292 58.169 224.92 59.2785 225.992 59.576L260.128 69.0495C261.001 69.2915 261.904 68.7805 262.147 67.908L265.614 55.413C265.81 55.524 265.994 55.6565 266.164 55.807C267.068 56.605 268.224 57.1505 269.566 57.287C272.228 57.558 274.801 55.9855 275.797 53.4845C277.166 50.0435 275.248 46.2775 271.799 45.32Z" fill="#F5F5F5"/>
<path d="M16.3936 173.011C17.1596 173.296 17.9476 173.403 18.7146 173.355C18.9831 173.339 19.2521 173.356 19.5136 173.412L15.4801 184.241C15.1831 185.038 15.5886 185.925 16.3861 186.222L27.6541 190.419L28.1301 189.141C28.2401 188.845 28.2901 188.531 28.2816 188.216C28.2641 187.582 28.3631 186.935 28.5981 186.305C29.6066 183.596 32.6691 182.251 35.3611 183.378C37.7331 184.37 39.0116 187.062 38.2841 189.528C38.0276 190.397 37.5636 191.136 36.9676 191.721C36.7016 191.982 36.4886 192.291 36.3586 192.641L36.0246 193.537L47.4276 197.825C48.4066 198.19 49.4956 197.692 49.8606 196.713L53.6121 186.673L54.3906 186.963C54.4791 186.996 54.5676 187.032 54.6546 187.072C55.3561 188.134 56.3876 188.992 57.6721 189.47C60.8931 190.67 64.4771 189.031 65.6771 185.81C66.8766 182.589 65.2381 179.005 62.0171 177.806C60.9636 177.413 59.8716 177.326 58.8366 177.497C58.6691 177.473 58.5041 177.433 58.3446 177.373L57.3456 177.001L61.5206 165.792C61.8851 164.813 61.3871 163.724 60.4081 163.359L29.2276 151.746C28.4301 151.449 27.5436 151.854 27.2466 152.652L22.9956 164.065C22.8216 163.946 22.6601 163.807 22.5126 163.652C21.7316 162.833 20.6931 162.229 19.4486 161.993C16.9791 161.525 14.4451 162.79 13.3116 165.05C11.7516 168.159 13.2436 171.838 16.3936 173.011Z" fill="#F5F5F5"/>
<path d="M179.392 148.781C182.176 148.588 184.584 149.342 186.91 150.427C187.949 150.911 189.173 151.262 190.321 151.262L193.366 151.193L193.402 117.338C193.402 114.141 190.794 111.549 187.577 111.549L155.396 111.668V110.974C155.396 109.614 155.744 108.287 156.34 107.062C157.901 103.854 158.541 100.123 157.869 96.1882C156.534 88.3792 150.012 82.2862 142.089 81.4242C131.187 80.2382 121.964 88.6922 121.964 99.2872C121.964 101.863 122.516 104.308 123.5 106.521C124.01 107.666 124.305 108.893 124.305 110.146L124.495 111.668H122.546H85.711C82.494 111.668 79.886 114.26 79.886 117.457V150.559H77.12C75.833 150.559 74.577 150.229 73.4185 149.665C70.3825 148.188 66.6625 147.582 62.939 148.219C55.55 149.481 49.784 155.653 48.969 163.15C47.847 173.466 55.8465 182.193 65.8715 182.193C68.3085 182.193 70.622 181.671 72.716 180.739C73.8 180.257 74.961 179.978 76.1465 179.978H79.696L79.767 220.468C79.767 223.072 81.8905 225.182 84.5105 225.182H188.317C190.937 225.182 192.99 221.893 192.99 219.29V182.488H188.788C187.817 182.488 186.857 182.68 185.957 183.042C184.147 183.769 182.173 184.177 180.101 184.177C171.202 184.177 164.029 176.83 164.386 167.907C164.701 160.044 171.494 149.329 179.392 148.781Z" fill="#E0E0E0"/>
<path d="M179.392 148.781C179.392 148.781 179.3 148.795 179.118 148.817C178.935 148.84 178.661 148.86 178.304 148.94C177.591 149.074 176.531 149.364 175.259 150.022C172.726 151.315 169.403 154.267 166.9 159.196C165.684 161.649 164.586 164.603 164.44 167.982C164.396 169.667 164.612 171.434 165.156 173.185C165.699 174.934 166.584 176.662 167.82 178.212C169.055 179.759 170.637 181.131 172.499 182.156C174.358 183.181 176.497 183.852 178.753 184.037C181.007 184.254 183.377 183.938 185.622 183.091C186.727 182.607 187.979 182.358 189.222 182.411C190.461 182.411 191.716 182.41 192.989 182.409H193.069V182.49C193.072 188.31 193.075 194.498 193.079 201.027C193.08 204.292 193.082 207.642 193.083 211.075C193.084 212.791 193.085 214.528 193.085 216.284C193.086 217.163 193.086 218.046 193.086 218.935C193.096 219.375 193.068 219.837 192.995 220.283C192.906 220.727 192.795 221.17 192.623 221.592C192.298 222.441 191.818 223.241 191.176 223.907C190.549 224.578 189.713 225.102 188.773 225.248C188.295 225.302 187.843 225.279 187.38 225.284C186.918 225.284 186.456 225.285 185.992 225.285C185.065 225.285 184.133 225.285 183.196 225.286C179.448 225.287 175.626 225.288 171.731 225.29C163.941 225.292 155.863 225.294 147.523 225.296C130.843 225.3 113.117 225.303 94.5574 225.307C92.2374 225.307 89.9044 225.307 87.5589 225.308C86.3809 225.297 85.2219 225.333 84.0194 225.284C82.8134 225.165 81.6594 224.576 80.8559 223.662C80.0409 222.756 79.6094 221.521 79.6394 220.307C79.6374 219.115 79.6349 217.921 79.6329 216.724C79.6284 214.33 79.6239 211.924 79.6194 209.506C79.6019 199.836 79.5839 189.985 79.5654 179.979L79.6944 180.108C78.9589 180.108 78.2209 180.108 77.4804 180.108C76.7399 180.12 75.9929 180.075 75.2689 180.159C74.5404 180.245 73.8224 180.432 73.1349 180.704C72.4554 180.992 71.7479 181.3 71.0244 181.521C68.1304 182.457 64.9474 182.57 61.9334 181.854C58.9329 181.111 56.0644 179.6 53.8584 177.349C52.7104 176.27 51.7989 174.964 50.9844 173.615C50.6329 172.908 50.2259 172.225 49.9719 171.472C49.8359 171.1 49.6684 170.739 49.5574 170.358L49.2449 169.21C48.3354 165.437 48.6754 161.37 50.2984 157.869C51.8959 154.36 54.7039 151.452 58.0944 149.715C59.7874 148.839 61.6289 148.28 63.5019 148.003C65.3784 147.747 67.2899 147.793 69.1414 148.136C70.0669 148.308 70.9774 148.554 71.8599 148.873C72.3009 149.033 72.7369 149.207 73.1614 149.406C73.5914 149.604 73.9939 149.803 74.4304 149.952C76.1559 150.633 78.0424 150.384 79.8839 150.431L79.7554 150.559C79.7559 143.4 79.7564 136.329 79.7569 129.356C79.7574 125.87 79.7579 122.409 79.7579 118.973C79.7749 118.118 79.7029 117.255 79.8604 116.385C80.0119 115.523 80.3714 114.703 80.8859 114.002C81.9044 112.587 83.5624 111.662 85.2919 111.564C98.8234 111.559 111.918 111.555 124.493 111.55L124.376 111.683C124.311 111.161 124.248 110.66 124.186 110.161L124.185 110.153V110.146C124.185 109.215 124.018 108.289 123.721 107.412C123.575 106.971 123.383 106.554 123.198 106.117C123.019 105.682 122.859 105.24 122.713 104.794C122.135 103.008 121.847 101.143 121.847 99.2919L121.922 97.9074C121.939 97.6774 121.936 97.4459 121.97 97.2179L122.082 96.5369C122.167 96.0854 122.207 95.6249 122.329 95.1834L122.696 93.8609C122.748 93.6379 122.828 93.4244 122.917 93.2139L123.168 92.5784C123.333 92.1539 123.493 91.7284 123.72 91.3344L124.351 90.1319L125.097 89.0034C126.144 87.5449 127.345 86.1904 128.767 85.1229L129.284 84.7049L129.838 84.3399C130.211 84.1019 130.574 83.8499 130.952 83.6249C131.74 83.2339 132.498 82.7809 133.329 82.5014C134.943 81.8194 136.665 81.4829 138.371 81.2934C139.231 81.2564 140.087 81.1659 140.94 81.2529C141.366 81.2814 141.793 81.2889 142.215 81.3349C142.635 81.3989 143.055 81.4624 143.474 81.5259C146.799 82.1774 149.888 83.7239 152.304 85.9409C154.72 88.1494 156.528 90.9529 157.429 93.9864C158.377 97.0059 158.454 100.213 157.797 103.18C157.466 104.664 156.932 106.091 156.277 107.418C155.978 108.089 155.753 108.789 155.623 109.503C155.481 110.219 155.48 110.939 155.486 111.668L155.393 111.576C164.121 111.548 172.298 111.521 179.875 111.497C181.769 111.491 183.626 111.486 185.444 111.48C185.899 111.478 186.351 111.477 186.801 111.476C187.25 111.471 187.697 111.47 188.15 111.503C189.048 111.589 189.911 111.89 190.662 112.35C192.181 113.26 193.185 114.862 193.408 116.529C193.513 117.369 193.453 118.188 193.467 118.999C193.466 119.81 193.464 120.612 193.463 121.403C193.437 134.058 193.417 144.118 193.402 151.194V151.232H193.365C192.138 151.249 190.997 151.306 189.929 151.284C188.861 151.206 187.907 150.901 187.079 150.538C185.447 149.763 184.03 149.283 182.872 149.046C181.715 148.805 180.834 148.768 180.255 148.764C179.965 148.761 179.749 148.77 179.605 148.777C179.464 148.78 179.392 148.781 179.392 148.781C179.392 148.781 179.676 148.746 180.257 148.743C180.837 148.74 181.72 148.771 182.882 149.006C184.044 149.237 185.47 149.714 187.105 150.483C187.928 150.842 188.878 151.141 189.936 151.215C190.993 151.233 192.141 151.174 193.365 151.154L193.328 151.192C193.329 144.116 193.33 134.056 193.33 121.401C193.331 120.61 193.331 119.809 193.331 118.997C193.316 118.189 193.373 117.357 193.27 116.547C193.05 114.922 192.07 113.36 190.587 112.475C189.854 112.028 189.013 111.736 188.138 111.653C187.702 111.622 187.254 111.623 186.804 111.628C186.354 111.63 185.902 111.632 185.447 111.634C183.629 111.642 181.772 111.65 179.878 111.658C172.301 111.69 164.124 111.724 155.396 111.761H155.304L155.303 111.668C155.296 110.947 155.297 110.198 155.441 109.47C155.574 108.74 155.803 108.025 156.107 107.341C156.763 106.009 157.284 104.61 157.612 103.138C158.26 100.204 158.18 97.0294 157.241 94.0454C156.347 91.0469 154.558 88.2764 152.168 86.0944C149.777 83.9039 146.722 82.3779 143.437 81.7359C143.023 81.6734 142.608 81.6109 142.193 81.5479C141.775 81.5029 141.353 81.4959 140.932 81.4679C140.089 81.3814 139.243 81.4724 138.394 81.5089C136.708 81.6974 135.007 82.0299 133.413 82.7054C132.592 82.9814 131.844 83.4304 131.065 83.8164C130.691 84.0384 130.333 84.2884 129.965 84.5234L129.418 84.8844L128.907 85.2979C127.503 86.3529 126.318 87.6919 125.285 89.1329L124.548 90.2474L123.926 91.4354C123.701 91.8244 123.544 92.2449 123.381 92.6639L123.134 93.2914C123.047 93.4994 122.968 93.7099 122.916 93.9299L122.555 95.2359C122.435 95.6719 122.396 96.1269 122.312 96.5724L122.201 97.2449C122.168 97.4699 122.171 97.6984 122.154 97.9254L122.081 99.2924C122.082 101.12 122.367 102.961 122.938 104.723C123.082 105.163 123.24 105.599 123.417 106.028C123.597 106.453 123.797 106.887 123.946 107.338C124.25 108.237 124.423 109.188 124.423 110.146L124.422 110.132C124.485 110.631 124.547 111.132 124.613 111.654L124.629 111.786H124.496C111.926 111.795 98.8374 111.804 85.3119 111.813C83.6544 111.907 82.0669 112.795 81.0914 114.15C80.5984 114.822 80.2544 115.606 80.1099 116.431C79.9594 117.25 80.0279 118.115 80.0119 118.974C80.0124 122.41 80.0124 125.871 80.0129 129.357C80.0134 136.33 80.0139 143.401 80.0149 150.56V150.689H79.8859C78.9634 150.689 78.0394 150.689 77.1139 150.689C76.1719 150.688 75.2329 150.511 74.3464 150.195C73.9029 150.045 73.4704 149.831 73.0554 149.641C72.6379 149.445 72.2084 149.273 71.7739 149.116C70.9044 148.802 70.0074 148.56 69.0959 148.39C67.2719 148.053 65.3879 148.008 63.5389 148.26C61.6939 148.534 59.8824 149.083 58.2149 149.947C54.8769 151.657 52.1094 154.522 50.5369 157.978C48.9389 161.424 48.6044 165.433 49.4999 169.149L49.8079 170.279C49.9169 170.654 50.0819 171.01 50.2164 171.376C50.4659 172.118 50.8674 172.79 51.2134 173.487C52.0159 174.815 52.9129 176.102 54.0439 177.164C56.2159 179.381 59.0409 180.869 61.9954 181.601C64.9634 182.306 68.0989 182.195 70.9479 181.274C71.6674 181.053 72.3419 180.76 73.0424 180.463C73.7489 180.184 74.4889 179.99 75.2414 179.902C75.9999 179.815 76.7439 179.862 77.4829 179.849C78.2234 179.849 78.9614 179.849 79.6969 179.849H79.8259V179.978C79.8429 189.985 79.8594 199.836 79.8754 209.506C79.8794 211.923 79.8834 214.329 79.8874 216.724C79.8894 217.921 79.8914 219.115 79.8934 220.306C79.8659 221.475 80.2734 222.632 81.0464 223.495C81.8084 224.363 82.9029 224.922 84.0469 225.035C85.1999 225.082 86.3949 225.048 87.5619 225.059C89.9074 225.059 92.2404 225.059 94.5604 225.06C113.12 225.063 130.846 225.067 147.526 225.07C155.866 225.073 163.944 225.075 171.734 225.077C175.629 225.079 179.451 225.08 183.199 225.081C184.136 225.082 185.068 225.082 185.995 225.082C186.459 225.082 186.921 225.083 187.383 225.083C187.842 225.078 188.312 225.099 188.748 225.05C189.63 224.913 190.429 224.419 191.036 223.769C191.656 223.126 192.125 222.347 192.442 221.521C192.61 221.11 192.718 220.68 192.805 220.249C192.875 219.813 192.902 219.383 192.894 218.935C192.894 218.047 192.894 217.163 192.895 216.285C192.895 214.528 192.896 212.791 192.897 211.075C192.898 207.643 192.9 204.293 192.901 201.028C192.905 194.498 192.908 188.31 192.911 182.49L192.991 182.571C191.719 182.57 190.463 182.569 189.224 182.569C187.986 182.517 186.785 182.754 185.678 183.235C183.411 184.087 181.017 184.403 178.744 184.181C176.467 183.992 174.31 183.311 172.436 182.275C170.56 181.238 168.967 179.853 167.725 178.291C166.481 176.727 165.592 174.984 165.047 173.221C164.502 171.455 164.288 169.675 164.335 167.979C164.489 164.576 165.599 161.616 166.825 159.158C169.347 154.219 172.692 151.268 175.24 149.983C176.519 149.329 177.585 149.045 178.302 148.918C178.659 148.843 178.935 148.826 179.118 148.806C179.3 148.787 179.392 148.781 179.392 148.781Z" fill="#1e282e"/>
<path d="M315.379 150.167C312.863 150.167 310.474 150.706 308.312 151.668C307.554 152.005 306.759 152.243 305.946 152.363V116.777C305.946 114.158 303.822 112.034 301.202 112.034H264.175V116.236C264.175 117.207 264.368 118.166 264.732 119.066C265.464 120.876 265.873 122.85 265.873 124.923C265.873 133.822 258.482 140.995 249.503 140.637C241.592 140.322 235.009 133.929 234.458 126.031C234.263 123.247 234.809 120.616 235.9 118.289C236.388 117.25 236.669 116.128 236.669 114.98V112.034L199.155 111.915C195.938 111.915 193.331 114.523 193.331 117.74L193.295 150.743H190.737C190.447 150.743 190.152 150.735 189.858 150.714C186.692 148.403 182.793 147.036 178.573 147.036C167.988 147.036 159.408 155.617 159.408 166.202C159.408 176.787 167.988 185.367 178.573 185.367C182.035 185.367 185.28 184.445 188.083 182.839C188.592 182.729 189.111 182.669 189.636 182.669H192.918V219.504C192.918 222.721 195.525 225.329 198.742 225.329H301.202C303.822 225.329 305.946 223.205 305.946 220.585V183.08C306.577 183.238 307.192 183.466 307.783 183.753C310.917 185.278 314.562 185.904 318.407 185.247C326.036 183.944 331.99 177.571 332.831 169.83C333.991 159.179 325.731 150.167 315.379 150.167Z" fill="#F5F5F5"/>
<path d="M315.379 150.167C315.379 150.167 315.755 150.18 316.493 150.216C316.861 150.236 317.323 150.239 317.863 150.347C318.134 150.391 318.427 150.438 318.742 150.489C319.06 150.526 319.389 150.614 319.737 150.715C320.087 150.811 320.458 150.913 320.85 151.02C321.234 151.15 321.628 151.32 322.047 151.48C322.255 151.564 322.472 151.642 322.687 151.736C322.896 151.845 323.11 151.956 323.328 152.069C323.759 152.304 324.235 152.506 324.668 152.822C326.479 153.942 328.387 155.604 329.948 157.928C331.488 160.239 332.751 163.219 332.931 166.656C332.949 167.084 332.987 167.517 332.989 167.954C332.966 168.391 332.942 168.833 332.918 169.28C332.901 169.503 332.905 169.729 332.87 169.953C332.837 170.176 332.803 170.401 332.769 170.627C332.734 170.853 332.699 171.08 332.664 171.308C332.611 171.533 332.557 171.759 332.504 171.986C332.075 173.801 331.332 175.622 330.256 177.327C329.181 179.029 327.783 180.625 326.068 181.945C324.352 183.257 322.334 184.302 320.115 184.929C319.564 185.098 318.987 185.186 318.418 185.32C317.84 185.411 317.256 185.493 316.663 185.531C315.479 185.621 314.268 185.589 313.057 185.425C311.845 185.27 310.635 184.967 309.453 184.544C308.256 184.141 307.172 183.441 305.926 183.159L306.027 183.081C306.03 188.841 306.033 194.956 306.036 201.4C306.038 204.623 306.039 207.927 306.041 211.311C306.041 213.003 306.042 214.714 306.043 216.445C306.043 217.311 306.043 218.181 306.044 219.056C306.044 219.494 306.044 219.933 306.044 220.373C306.049 220.591 306.031 220.818 306.021 221.042C305.988 221.264 305.97 221.491 305.908 221.708C305.511 223.478 304.013 224.966 302.189 225.328C301.737 225.414 301.265 225.438 300.816 225.429C300.362 225.429 299.906 225.43 299.45 225.43C298.537 225.43 297.62 225.43 296.698 225.431C293.01 225.432 289.249 225.433 285.419 225.434C277.758 225.436 269.818 225.439 261.625 225.441C245.239 225.444 227.839 225.447 209.627 225.451C207.35 225.451 205.061 225.451 202.76 225.452C201.609 225.452 200.455 225.452 199.298 225.452C198.726 225.46 198.124 225.443 197.543 225.332C196.964 225.204 196.404 224.999 195.879 224.719C194.842 224.14 193.971 223.256 193.436 222.187C193.156 221.659 192.982 221.078 192.88 220.49C192.767 219.898 192.797 219.296 192.791 218.715C192.791 216.366 192.791 214.005 192.791 211.634C192.79 202.147 192.789 192.484 192.788 182.668L192.917 182.797C192.159 182.797 191.364 182.797 190.55 182.797C190.146 182.8 189.726 182.79 189.324 182.804C188.918 182.823 188.511 182.878 188.11 182.964L188.147 182.95C185.795 184.293 183.122 185.166 180.35 185.413C177.582 185.648 174.725 185.311 172.057 184.344C169.39 183.384 166.907 181.829 164.876 179.787C162.86 177.733 161.289 175.22 160.34 172.474C159.678 170.505 159.302 168.44 159.285 166.368C159.291 164.298 159.597 162.238 160.214 160.272C160.835 158.305 161.818 156.472 163.017 154.817C163.601 153.974 164.307 153.23 165.005 152.487L166.138 151.457C166.52 151.12 166.947 150.838 167.349 150.526C169.009 149.349 170.837 148.419 172.766 147.798C174.706 147.208 176.719 146.929 178.731 146.909C182.758 146.925 186.732 148.26 189.933 150.61L189.867 150.585C190.999 150.642 192.156 150.602 193.294 150.615L193.166 150.743C193.174 143.692 193.182 136.73 193.19 129.868C193.194 126.437 193.199 123.03 193.203 119.65L193.204 118.384C193.199 117.965 193.205 117.539 193.239 117.108C193.331 116.253 193.613 115.421 194.054 114.688C194.928 113.213 196.46 112.154 198.141 111.883C198.988 111.74 199.822 111.809 200.647 111.796C201.475 111.799 202.301 111.802 203.126 111.804C204.775 111.81 206.417 111.815 208.052 111.821C211.322 111.832 214.563 111.843 217.775 111.853C224.197 111.875 230.498 111.896 236.668 111.917L236.785 111.918V112.034C236.785 112.918 236.784 113.799 236.784 114.677C236.809 115.559 236.686 116.46 236.412 117.3C236.28 117.721 236.102 118.132 235.92 118.524C235.739 118.916 235.582 119.318 235.434 119.721C235.148 120.533 234.921 121.363 234.774 122.206C234.158 125.577 234.743 129.085 236.285 132.032C237.054 133.507 238.036 134.864 239.213 136.011C240.388 137.159 241.728 138.118 243.169 138.853C246.045 140.363 249.355 140.806 252.457 140.362C255.565 139.902 258.463 138.488 260.699 136.426C261.798 135.383 262.807 134.238 263.546 132.934C264.304 131.649 264.914 130.279 265.255 128.848C266.02 126.008 265.92 123.007 265.071 120.306C264.878 119.624 264.561 118.99 264.366 118.296C264.172 117.608 264.076 116.895 264.079 116.188C264.08 114.79 264.08 113.405 264.081 112.035V111.942H264.174C273.911 111.946 282.965 111.951 291.273 111.955C293.35 111.956 295.381 111.957 297.364 111.958C298.355 111.959 299.335 111.959 300.302 111.96C300.786 111.963 301.266 111.948 301.752 111.995C302.235 112.049 302.702 112.185 303.142 112.372C304.017 112.761 304.762 113.406 305.26 114.194C305.767 114.98 306.012 115.904 306.014 116.809C306.013 118.598 306.012 120.337 306.01 122.026C305.995 135.534 305.984 145.812 305.977 152.364L305.94 152.332C307.608 152.116 308.863 151.304 310.05 150.979C311.222 150.604 312.221 150.421 313.014 150.312C313.809 150.208 314.402 150.18 314.794 150.17C315.188 150.162 315.379 150.167 315.379 150.167C315.379 150.167 315.188 150.172 314.796 150.186C314.405 150.201 313.813 150.235 313.02 150.344C312.229 150.457 311.233 150.645 310.066 151.024C308.888 151.351 307.633 152.17 305.951 152.395L305.914 152.4V152.364C305.907 145.811 305.896 135.534 305.881 122.026C305.88 120.337 305.878 118.598 305.877 116.809C305.873 115.928 305.634 115.032 305.141 114.27C304.656 113.506 303.933 112.881 303.083 112.504C302.656 112.324 302.203 112.192 301.735 112.14C301.269 112.096 300.786 112.11 300.302 112.109C299.335 112.109 298.355 112.11 297.364 112.111C295.381 112.112 293.35 112.113 291.273 112.114C282.965 112.118 273.911 112.123 264.174 112.127L264.267 112.034C264.268 113.405 264.268 114.789 264.269 116.188C264.266 116.879 264.361 117.572 264.551 118.243C264.737 118.911 265.058 119.556 265.255 120.248C266.117 122.982 266.221 126.021 265.449 128.898C265.104 130.347 264.488 131.736 263.72 133.037C262.973 134.358 261.951 135.52 260.838 136.577C258.575 138.667 255.639 140.103 252.488 140.571C249.346 141.024 245.987 140.576 243.07 139.046C241.609 138.302 240.251 137.33 239.059 136.167C237.865 135.004 236.867 133.629 236.087 132.134C234.521 129.145 233.926 125.586 234.55 122.164C234.698 121.309 234.928 120.466 235.218 119.643C235.368 119.233 235.527 118.825 235.711 118.427C235.895 118.03 236.063 117.641 236.193 117.228C236.458 116.407 236.576 115.549 236.552 114.676C236.552 113.798 236.552 112.917 236.552 112.033L236.668 112.15C230.498 112.131 224.197 112.113 217.775 112.094C214.564 112.084 211.323 112.074 208.053 112.065C206.418 112.06 204.776 112.055 203.126 112.05C202.302 112.047 201.475 112.045 200.647 112.042C199.82 112.054 198.981 111.989 198.184 112.127C196.573 112.386 195.105 113.402 194.268 114.816C193.846 115.518 193.576 116.315 193.488 117.134C193.456 117.542 193.449 117.959 193.454 118.384L193.453 119.65C193.45 123.03 193.447 126.437 193.443 129.868C193.436 136.73 193.429 143.692 193.422 150.743V150.872L193.294 150.871C192.149 150.858 191.018 150.899 189.849 150.841L189.813 150.839L189.782 150.817C186.623 148.498 182.703 147.183 178.73 147.167C176.744 147.188 174.758 147.463 172.845 148.045C170.942 148.657 169.139 149.575 167.501 150.736C167.105 151.044 166.683 151.322 166.307 151.655L165.189 152.671C164.501 153.405 163.804 154.138 163.228 154.97C162.046 156.603 161.076 158.411 160.463 160.351C159.855 162.291 159.553 164.323 159.546 166.366C159.564 168.41 159.935 170.447 160.587 172.389C161.524 175.097 163.073 177.576 165.062 179.604C167.066 181.618 169.515 183.152 172.146 184.099C174.777 185.053 177.596 185.386 180.327 185.154C183.062 184.911 185.699 184.05 188.019 182.725L188.037 182.715L188.056 182.711C188.47 182.622 188.892 182.565 189.313 182.546C189.739 182.531 190.142 182.542 190.552 182.538C191.366 182.538 192.16 182.538 192.919 182.538H193.048V182.667C193.047 192.483 193.046 202.147 193.045 211.633C193.045 214.005 193.045 216.365 193.045 218.714C193.05 219.305 193.021 219.886 193.129 220.448C193.227 221.011 193.393 221.567 193.662 222.072C194.174 223.097 195.009 223.943 196.001 224.498C196.504 224.766 197.04 224.963 197.595 225.086C198.155 225.192 198.716 225.209 199.3 225.202C200.457 225.202 201.61 225.202 202.761 225.202C205.063 225.203 207.352 225.203 209.628 225.203C227.84 225.207 245.24 225.21 261.627 225.214C269.82 225.216 277.76 225.218 285.42 225.22C289.251 225.222 293.011 225.223 296.699 225.224C297.621 225.224 298.539 225.224 299.451 225.225C299.908 225.225 300.363 225.225 300.817 225.225C301.276 225.234 301.712 225.211 302.149 225.129C303.897 224.784 305.336 223.357 305.717 221.661C305.822 221.238 305.853 220.81 305.849 220.371C305.849 219.931 305.849 219.492 305.849 219.054C305.85 218.179 305.85 217.309 305.85 216.443C305.851 214.712 305.852 213.001 305.852 211.309C305.854 207.925 305.855 204.621 305.857 201.398C305.86 194.954 305.863 188.839 305.866 183.079V182.977L305.966 183C307.243 183.293 308.332 183.998 309.507 184.394C310.678 184.815 311.877 185.116 313.078 185.272C314.279 185.436 315.479 185.468 316.653 185.381C317.241 185.344 317.821 185.263 318.394 185.174C318.958 185.042 319.53 184.955 320.077 184.789C322.278 184.17 324.281 183.136 325.986 181.836C327.689 180.529 329.08 178.947 330.15 177.259C331.221 175.567 331.962 173.76 332.391 171.958C332.445 171.732 332.498 171.508 332.551 171.285C332.587 171.058 332.622 170.833 332.657 170.608C332.691 170.384 332.725 170.16 332.759 169.938C332.793 169.716 332.79 169.491 332.807 169.27C332.832 168.826 332.857 168.386 332.881 167.952C332.88 167.517 332.842 167.087 332.825 166.662C332.653 163.245 331.404 160.279 329.877 157.976C328.329 155.66 326.435 153.999 324.634 152.877C324.203 152.561 323.73 152.358 323.301 152.122C323.084 152.008 322.872 151.897 322.664 151.788C322.45 151.693 322.234 151.615 322.027 151.53C321.61 151.369 321.218 151.198 320.835 151.067C320.445 150.958 320.076 150.855 319.727 150.758C319.38 150.656 319.052 150.565 318.735 150.527C318.422 150.474 318.129 150.426 317.859 150.38C317.321 150.268 316.86 150.262 316.492 150.238C315.755 150.195 315.379 150.167 315.379 150.167Z" fill="#1e282e"/>
<path d="M190.522 156.733C190.522 156.733 192.204 155.866 193.689 156.191C195.174 156.517 200.566 160.032 200.566 160.032L204.91 159.221L207.471 171.488L190.522 178.531V156.733Z" fill="#ae7461"/>
<path d="M177.985 161.01C177.985 161.01 181.868 160.519 183.274 159.816C184.681 159.113 188.034 156.138 188.737 156.192C189.44 156.246 191.983 156.733 191.983 156.733L190.955 159.816C190.955 159.816 196.039 162.899 197.554 164.035C199.068 165.171 203.828 170.256 204.045 171.5C204.261 172.744 203.882 174.204 203.287 174.691C202.692 175.178 200.529 174.204 200.529 174.204C200.529 174.204 200.853 175.34 200.042 176.422C199.23 177.504 197.337 177.125 197.337 177.125C197.337 177.125 197.175 178.91 196.309 179.234C195.444 179.559 193.497 178.585 193.497 178.585C193.497 178.585 192.909 180.1 192.202 180.262C191.495 180.425 189.494 179.235 189.494 179.235C189.494 179.235 180.839 173.014 178.892 172.095C176.944 171.175 176.349 171.121 176.349 171.121L177.985 161.01Z" fill="#ffbe9d"/>
<path d="M193.498 178.586C193.459 178.584 193.434 178.433 193.343 178.206C193.253 177.978 193.1 177.672 192.908 177.342C192.522 176.682 192.176 176.154 192.238 176.109C192.291 176.068 192.733 176.529 193.133 177.212C193.332 177.553 193.469 177.893 193.52 178.154C193.572 178.418 193.53 178.589 193.498 178.586Z" fill="#eb996e"/>
<path d="M197.094 177.533C197.023 177.57 196.6 176.793 196.003 175.899C195.411 174.999 194.777 174.397 194.823 174.341C194.864 174.281 195.608 174.825 196.219 175.753C196.832 176.672 197.151 177.506 197.094 177.533Z" fill="#eb996e"/>
<path d="M200.566 174.412C200.489 174.431 200.248 173.495 199.65 172.485C199.062 171.47 198.363 170.802 198.417 170.744C198.455 170.691 199.26 171.296 199.874 172.354C200.497 173.406 200.631 174.405 200.566 174.412Z" fill="#eb996e"/>
<path d="M198.032 167.661C198.1 167.646 198.286 168.29 198.321 169.111C198.359 169.931 198.23 170.589 198.161 170.581C198.087 170.573 198.098 169.921 198.06 169.122C198.027 168.324 197.959 167.675 198.032 167.661Z" fill="#eb996e"/>
<path d="M185.438 162.791C185.438 162.791 186.79 158.463 187.277 157.923C187.764 157.382 192.286 156.191 192.286 156.191L193.689 159.816L192.685 160.878L190.521 160.736C190.521 160.736 189.17 164.305 185.438 162.791Z" fill="#ae7461"/>
<path d="M177.138 171.348C177.138 171.348 176.52 171.824 177.138 172.96C177.757 174.096 179.434 173.284 179.975 172.96C179.975 172.96 179.163 174.853 180.191 175.448C181.219 176.043 182.463 175.881 182.463 175.881C182.463 175.881 182.409 177.017 183.87 177.774C185.33 178.531 185.709 177.774 185.709 177.774C185.709 177.774 185.871 179.667 187.548 179.829C189.225 179.991 189.815 179.415 189.815 179.415L189.062 178.297C189.062 178.297 190.036 176.313 189.279 175.448C188.521 174.582 187.277 174.691 187.277 174.691C187.277 174.691 187.608 172.933 186.644 172.444C184.851 171.534 184.086 173.231 184.086 173.231C184.086 173.231 183.978 171.305 182.571 171.348C181.165 171.392 180.408 172.257 180.408 172.257L177.138 171.348Z" fill="#ae7461"/>
<path d="M184.086 173.231C184.149 173.262 183.884 173.921 183.441 174.673C182.999 175.426 182.551 175.978 182.493 175.938C182.433 175.897 182.78 175.286 183.217 174.541C183.654 173.797 184.02 173.198 184.086 173.231Z" fill="#6F4439"/>
<path d="M187.311 174.934C187.374 174.964 187.098 175.667 186.574 176.431C186.052 177.197 185.496 177.709 185.446 177.661C185.391 177.61 185.849 177.032 186.359 176.284C186.871 175.538 187.244 174.901 187.311 174.934Z" fill="#6F4439"/>
<path d="M153.807 195.346H145.602L143.501 225.183H151.728C153.128 220.639 156.629 196.959 156.629 196.959L153.807 195.346Z" fill="#1e282e"/>
<path d="M107.338 195.347C107.338 195.347 102.087 207.66 102.612 212.644C103.137 217.628 106.086 225.184 106.086 225.184H146.723C146.723 225.184 147.857 221.021 148.733 214.864C149.608 208.707 151.971 195.347 151.971 195.347H107.338Z" fill="#1e282e"/>
<path d="M161.039 76.5135C159.666 74.7815 157.97 73.1135 157.619 70.932C157.295 68.926 158.173 66.7295 157.273 64.908C156.167 62.6665 152.986 62.2285 151.606 60.144C150.938 59.1345 150.78 57.8555 150.121 56.8405C148.997 55.1105 146.691 54.5535 144.632 54.672C142.572 54.7905 140.563 55.4305 138.501 55.4735C135.672 55.533 132.807 54.4715 130.06 55.149C127.028 55.8965 125.072 58.4515 123.004 60.916L120.326 63.7605C119.777 64.243 119.199 64.6835 118.571 65.048C117.471 65.6855 116.228 66.102 115.269 66.936C113.217 68.7205 113.206 72.3455 115.247 74.143C113.042 74.73 111.374 76.921 111.394 79.2025C111.406 80.458 111.868 81.6575 112.185 82.872C112.502 84.0865 112.663 85.4295 112.107 86.555C111.551 87.6805 110.043 88.3975 108.981 87.7285C109.288 89.37 110.38 90.846 111.861 91.618C111.243 92.1945 110.399 92.5215 109.554 92.512C111.582 97.9935 117.669 101.116 123.505 101.426C129.341 101.735 135.035 99.788 140.555 97.867L156.468 94.529C157.863 94.2785 158.518 92.6285 158.565 91.2115C158.612 89.7945 158.324 88.3045 158.892 87.0055C159.671 85.225 161.825 84.3625 162.636 82.596C163.558 80.588 162.411 78.2455 161.039 76.5135Z" fill="#1e282e"/>
<path d="M123.168 89.0869C122.198 85.4809 121.243 81.8489 120.908 78.1299C120.573 74.4109 120.883 70.5679 122.363 67.1394C122.587 66.6199 124.449 63.1509 125.009 63.2354C125.409 63.2959 124.204 66.5589 124.389 66.9184C126.158 70.3509 126.479 74.3859 125.971 78.2134C125.463 82.0409 124.485 85.4574 123.168 89.0869Z" fill="#1e282e"/>
<path d="M123.533 74.8393C123.711 65.4758 129.309 57.7748 138.664 58.2118L139.526 58.3023C148.203 59.2173 154.725 66.6388 154.511 75.3608C154.312 83.4758 153.988 92.4393 153.479 96.7508C152.427 105.676 143.342 106.123 143.342 106.123C143.322 106.122 143.097 120.866 143.097 120.866L121.825 106.127L123.533 74.8393Z" fill="#ffbe9d"/>
<path d="M143.341 106.124C143.341 106.124 137.673 105.861 132.068 101.458C132.068 101.458 134.162 109.011 143.165 109.146L143.341 106.124Z" fill="#eb996e"/>
<path d="M151.414 82.2869C151.367 82.9634 150.755 83.4814 150.048 83.4449C149.342 83.4084 148.806 82.8319 148.854 82.1554C148.901 81.4789 149.513 80.9604 150.219 80.9964C150.926 81.0329 151.461 81.6109 151.414 82.2869Z" fill="#1e282e"/>
<path d="M152.21 78.8689C152.035 79.0184 151.143 78.2009 149.769 78.0599C148.399 77.8994 147.317 78.4994 147.186 78.3154C147.12 78.2334 147.313 77.9499 147.786 77.6764C148.251 77.4039 149.021 77.1719 149.876 77.2659C150.731 77.3609 151.417 77.7514 151.797 78.1174C152.184 78.4864 152.296 78.8024 152.21 78.8689Z" fill="#1e282e"/>
<path d="M138.986 82.2869C138.939 82.9634 138.327 83.4814 137.619 83.4449C136.913 83.4084 136.378 82.8324 136.425 82.1554C136.473 81.4794 137.084 80.9604 137.791 80.9969C138.498 81.0329 139.033 81.6109 138.986 82.2869Z" fill="#1e282e"/>
<path d="M138.699 78.0064C138.523 78.1559 137.63 77.3384 136.257 77.1974C134.887 77.0369 133.805 77.6369 133.673 77.4529C133.608 77.3709 133.799 77.0874 134.274 76.8144C134.739 76.5414 135.509 76.3099 136.364 76.4034C137.219 76.4984 137.905 76.8894 138.285 77.2549C138.672 77.6244 138.784 77.9404 138.699 78.0064Z" fill="#1e282e"/>
<path d="M142.513 89.0782C142.515 88.9997 143.384 88.9417 144.786 88.9107C145.141 88.9117 145.48 88.8767 145.564 88.6437C145.674 88.3992 145.567 88.0057 145.44 87.5797C145.199 86.6962 144.948 85.7707 144.684 84.8002C143.645 80.8467 142.932 77.6107 143.091 77.5697C143.251 77.5292 144.223 80.7012 145.262 84.6552C145.51 85.6297 145.747 86.5577 145.973 87.4462C146.063 87.8587 146.244 88.3347 146.01 88.8417C145.888 89.0937 145.61 89.2567 145.379 89.2937C145.147 89.3387 144.95 89.3217 144.775 89.3137C143.374 89.2417 142.51 89.1572 142.513 89.0782Z" fill="#1e282e"/>
<path d="M138.371 89.6023C138.596 89.6128 138.442 91.1038 139.606 92.2963C140.768 93.4918 142.375 93.4918 142.364 93.7018C142.375 93.7973 141.98 93.9543 141.307 93.9018C140.647 93.8548 139.708 93.5423 138.996 92.8128C138.286 92.0818 138.043 91.1808 138.056 90.5638C138.065 89.9348 138.27 89.5828 138.371 89.6023Z" fill="#1e282e"/>
<path d="M139.211 72.4255C139.036 72.785 137.683 72.463 136.052 72.4875C134.42 72.479 133.07 72.8135 132.892 72.4565C132.813 72.286 133.077 71.959 133.64 71.6525C134.199 71.3465 135.066 71.091 136.045 71.085C137.023 71.0815 137.893 71.328 138.454 71.6285C139.021 71.93 139.288 72.2545 139.211 72.4255Z" fill="#1e282e"/>
<path d="M152.124 74.2437C151.849 74.5302 150.937 74.1067 149.801 73.9712C148.67 73.7962 147.678 73.9597 147.49 73.6097C147.41 73.4412 147.594 73.1447 148.046 72.8937C148.492 72.6432 149.212 72.4762 149.991 72.5822C150.77 72.6892 151.418 73.0432 151.78 73.4047C152.148 73.7677 152.246 74.1027 152.124 74.2437Z" fill="#1e282e"/>
<path d="M123.566 81.5341C123.42 81.4521 117.617 79.0706 117.168 85.2011C116.719 91.3311 122.966 90.5176 122.99 90.3426C123.013 90.1671 123.566 81.5341 123.566 81.5341Z" fill="#ffbe9d"/>
<path d="M121.287 87.8824C121.261 87.8609 121.174 87.9489 120.988 88.0189C120.806 88.0864 120.499 88.1199 120.188 87.9769C119.558 87.6919 119.088 86.6239 119.139 85.5164C119.164 84.9574 119.32 84.4349 119.55 84.0094C119.77 83.5749 120.083 83.2824 120.413 83.2484C120.743 83.1974 120.96 83.4094 121.022 83.5874C121.092 83.7649 121.044 83.8844 121.076 83.8974C121.092 83.9144 121.215 83.8044 121.184 83.5474C121.168 83.4239 121.106 83.2739 120.971 83.1454C120.833 83.0154 120.621 82.9379 120.392 82.9459C119.917 82.9439 119.46 83.3474 119.207 83.8144C118.928 84.2819 118.74 84.8684 118.712 85.4964C118.661 86.7344 119.208 87.9369 120.076 88.2579C120.499 88.4019 120.868 88.2984 121.064 88.1674C121.265 88.0299 121.307 87.8954 121.287 87.8824Z" fill="#eb996e"/>
<path d="M151.196 64.9424C152.224 64.4589 149.452 61.0519 147.084 59.7879C143.504 57.8779 137.94 56.4854 134.478 57.2304C130.311 58.1274 126.779 59.9454 124.484 63.5384C122.189 67.1314 121.138 71.4224 120.983 75.6824C120.936 76.9824 120.984 78.3439 121.606 79.4859C122.376 80.8974 123.965 81.8574 123.772 83.7234C123.702 84.4054 123.853 85.1084 124.289 85.6369C125.334 86.9034 126.78 85.8699 127.483 84.7854C128.986 82.4694 129.321 79.6109 129.617 76.8659C129.827 74.9149 130.035 72.9219 129.604 71.0074C129.37 69.9659 128.95 68.9689 128.774 67.9154C128.597 66.8619 128.705 65.6869 129.405 64.8814C129.519 64.7504 129.704 64.5879 129.936 64.4094C131.771 62.9984 134.232 62.6994 136.36 63.6099C139.736 65.0544 145.517 67.2589 147.133 66.1859C149.458 64.6419 150.059 63.5764 150.059 63.5764L151.196 64.9424Z" fill="#1e282e"/>
<path d="M134.852 56.4207C138.295 55.5102 142.129 55.8167 145.179 57.6562C146.797 58.6327 148.221 60.1187 148.615 61.9677C149.009 63.8167 148.089 66.0017 146.296 66.6007L146.171 66.6687C143.498 67.3812 141.819 66.9212 139.268 65.8502C137.121 64.9487 135.256 63.4682 133.105 62.5772C130.818 61.6302 128.245 61.3892 125.822 61.8952C128.34 59.3767 131.409 57.3307 134.852 56.4207Z" fill="#1e282e"/>
<path d="M136.404 55.3559C136.406 55.3394 136.628 55.3574 137.028 55.4179C137.424 55.4924 137.998 55.6174 138.679 55.8674C139.358 56.1164 140.142 56.4924 140.938 57.0319C141.73 57.5689 142.542 58.2744 143.188 59.1869C143.84 60.1019 144.196 61.1209 144.427 62.0474C144.654 62.9794 144.753 63.8374 144.804 64.5564C144.855 65.2759 144.856 65.8594 144.849 66.2614C144.841 66.6639 144.821 66.8859 144.804 66.8859C144.785 66.8859 144.771 66.6639 144.747 66.2634C144.724 65.8629 144.694 65.2839 144.62 64.5724C144.547 63.8619 144.429 63.0174 144.194 62.1064C143.955 61.2009 143.601 60.2134 142.975 59.3374C142.353 58.4584 141.568 57.7649 140.801 57.2299C140.031 56.6924 139.271 56.3064 138.611 56.0394C137.286 55.5094 136.394 55.4059 136.404 55.3559Z" fill="#07415e"/>
<path d="M142.049 55.0156C142.054 54.9986 142.241 55.0511 142.578 55.1621C142.743 55.2256 142.961 55.2701 143.184 55.3886C143.419 55.5076 143.674 55.6371 143.95 55.7771C145.042 56.4156 146.389 57.6986 147.13 59.5171C147.333 59.9626 147.453 60.4241 147.581 60.8656C147.665 61.3176 147.762 61.7511 147.781 62.1741C147.836 62.5936 147.804 62.9966 147.805 63.3711C147.758 63.7431 147.744 64.0946 147.664 64.4041C147.591 64.7151 147.537 64.9981 147.437 65.2326C147.346 65.4691 147.286 65.6786 147.19 65.8316C147.022 66.1456 146.922 66.3126 146.906 66.3041C146.853 66.2791 147.276 65.6031 147.483 64.3711C147.55 64.0676 147.553 63.7231 147.589 63.3611C147.579 62.9956 147.602 62.6041 147.542 62.1966C147.518 61.7856 147.417 61.3651 147.333 60.9266C147.205 60.4986 147.087 60.0506 146.89 59.6186C146.171 57.8551 144.894 56.5996 143.853 55.9341C143.589 55.7851 143.345 55.6471 143.121 55.5206C142.908 55.3916 142.699 55.3341 142.542 55.2571C142.22 55.1186 142.043 55.0331 142.049 55.0156Z" fill="#07415e"/>
<path d="M146.048 119.387C146.048 120.228 150.265 138.75 151.879 143.299C153.493 147.849 158.604 193.472 157.931 196.721C157.259 199.971 155.51 199.841 155.51 199.841C155.51 199.841 114.219 197.241 109.78 197.631C105.342 198.021 103.459 197.891 102.383 192.822C101.307 187.752 102.415 161.406 101.473 155.037C100.532 148.668 100.524 145.581 100.16 136.118C99.8441 127.917 101.71 121.339 105.611 116.591C109.511 111.844 118.145 107.043 118.145 107.043L121.208 102.577L142.88 114.039L143.376 111.43L144.691 115.492L146.048 119.387Z" fill="#07415e"/>
<g opacity="0.3">
<path d="M155.363 175.839C155.002 174.919 153.832 174.687 152.849 174.578C143.667 173.56 134.108 171.268 127.402 164.913C124.778 162.427 122.709 159.423 120.715 156.409C116.356 149.818 112.259 143.06 108.163 136.303L104.982 137.506C106.933 147.046 108.853 153.953 112.03 161.773C115.21 169.601 117.674 177.179 125.726 179.741C130.931 181.396 140.816 180.127 146.261 179.701C148.535 179.523 150.824 179.303 153.007 178.644C153.667 178.445 154.335 178.193 154.832 177.715C155.329 177.237 155.615 176.48 155.363 175.839Z" fill="black"/>
</g>
<path d="M103.863 135.012C104.1 135.435 122.477 174.684 130.681 176.298C138.886 177.912 164.384 178.289 169.361 177.347C174.337 176.406 179.206 175.529 179.206 175.529C179.206 175.529 182.809 166.97 179.52 159.678L172.671 159.895C172.671 159.895 153.627 158.868 150.937 158.132C148.247 157.396 145.923 154.873 143.502 155.008L129.015 121.293C129.015 121.293 119.6 112.55 112.875 115.24C106.149 117.931 101.892 131.507 103.863 135.012Z" fill="#07415e"/>
<path d="M173.198 176.89C173.181 176.884 173.231 176.649 173.334 176.23C173.443 175.813 173.578 175.202 173.721 174.445C173.867 173.688 173.993 172.778 174.084 171.765C174.163 170.75 174.2 169.63 174.156 168.457C174.054 166.107 173.636 164.008 173.224 162.524C173.019 161.782 172.833 161.184 172.691 160.777C172.553 160.367 172.484 160.137 172.501 160.131C172.517 160.124 172.618 160.341 172.786 160.742C172.958 161.14 173.171 161.731 173.401 162.473C173.862 163.955 174.314 166.071 174.416 168.446C174.461 169.632 174.417 170.764 174.324 171.787C174.219 172.809 174.072 173.724 173.902 174.482C173.735 175.24 173.571 175.847 173.432 176.258C173.298 176.67 173.215 176.895 173.198 176.89Z" fill="#1e282e"/>
<path d="M129.014 121.293C129.014 121.293 129.112 121.494 129.288 121.89C129.465 122.294 129.723 122.883 130.061 123.652C130.736 125.206 131.725 127.484 132.992 130.402C135.519 136.257 139.154 144.677 143.596 154.967L143.496 154.905C144.64 154.851 145.715 155.349 146.708 155.888C147.708 156.439 148.676 157.08 149.738 157.565C150.787 158.098 151.978 158.221 153.184 158.367C154.391 158.51 155.622 158.615 156.871 158.724C161.868 159.137 167.164 159.462 172.678 159.77H172.667C174.821 159.701 177.152 159.626 179.516 159.551L179.602 159.548L179.636 159.626C180.693 162.044 181.135 164.763 181.008 167.486C180.891 170.212 180.333 172.954 179.326 175.579L179.302 175.643L179.229 175.657C177.85 175.912 176.366 176.185 174.875 176.461C173.276 176.756 171.687 177.05 170.108 177.341C168.527 177.649 166.915 177.768 165.336 177.833C162.167 177.977 159.045 177.989 155.977 177.973C152.91 177.956 149.897 177.885 146.948 177.776C143.999 177.672 141.113 177.519 138.301 177.304C136.895 177.204 135.509 177.068 134.142 176.919C132.776 176.738 131.434 176.617 130.115 176.25C129.471 176.01 128.901 175.642 128.371 175.243C127.839 174.844 127.353 174.401 126.889 173.944C125.961 173.032 125.13 172.057 124.346 171.077C121.239 167.128 118.804 163.126 116.627 159.464C112.319 152.104 109.21 145.94 107.076 141.68C106.014 139.546 105.211 137.879 104.671 136.746C104.132 135.613 103.862 135.011 103.862 135.011C103.862 135.011 103.944 135.155 104.087 135.443C104.232 135.737 104.443 136.164 104.718 136.723C105.281 137.851 106.105 139.505 107.166 141.634C109.328 145.879 112.461 152.029 116.785 159.37C118.97 163.022 121.413 167.014 124.515 170.941C125.297 171.916 126.125 172.883 127.045 173.785C127.504 174.236 127.986 174.673 128.507 175.063C129.026 175.452 129.583 175.808 130.193 176.034C131.442 176.38 132.818 176.511 134.169 176.685C135.531 176.832 136.915 176.966 138.319 177.064C141.127 177.275 144.01 177.425 146.956 177.527C149.903 177.633 152.913 177.702 155.978 177.717C159.043 177.731 162.163 177.718 165.323 177.573C166.906 177.506 168.486 177.391 170.059 177.085C171.638 176.793 173.228 176.499 174.827 176.204C176.319 175.929 177.803 175.655 179.183 175.4L179.086 175.478C180.076 172.897 180.634 170.165 180.749 167.475C180.877 164.783 180.439 162.105 179.404 159.729L179.524 159.804C177.16 159.878 174.829 159.95 172.675 160.018H172.67L172.665 160.017C167.148 159.705 161.853 159.374 156.851 158.953C155.601 158.842 154.369 158.735 153.158 158.589C152.552 158.52 151.952 158.442 151.356 158.329C150.752 158.238 150.187 158.003 149.646 157.763C148.564 157.266 147.594 156.62 146.605 156.073C145.623 155.535 144.58 155.059 143.508 155.108L143.435 155.112L143.407 155.046C139 144.742 135.393 136.309 132.885 130.446C131.64 127.518 130.669 125.233 130.005 123.674C129.68 122.9 129.43 122.307 129.26 121.901C129.093 121.502 129.014 121.293 129.014 121.293Z" fill="#1e282e"/>
<path d="M127.095 118.646C127.077 118.662 126.839 118.41 126.382 117.986C125.926 117.561 125.225 116.987 124.28 116.401C123.337 115.814 122.128 115.245 120.712 114.857C119.299 114.467 117.673 114.285 115.988 114.443C114.305 114.621 112.747 115.121 111.439 115.784C110.127 116.445 109.055 117.242 108.247 118.004C107.437 118.765 106.863 119.467 106.501 119.974C106.136 120.48 105.953 120.774 105.932 120.762C105.925 120.757 105.963 120.679 106.043 120.535C106.128 120.394 106.236 120.173 106.417 119.916C106.757 119.388 107.315 118.66 108.12 117.871C108.923 117.081 110.001 116.255 111.33 115.57C112.655 114.884 114.243 114.366 115.962 114.184C117.683 114.022 119.342 114.216 120.776 114.626C122.214 115.034 123.434 115.63 124.378 116.246C125.324 116.86 126.014 117.462 126.452 117.913C126.68 118.129 126.83 118.325 126.941 118.446C127.048 118.572 127.101 118.64 127.095 118.646Z" fill="#1e282e"/>
<path d="M143.446 155.037C143.514 155.062 143.099 156.337 142.519 157.884C141.94 159.431 141.416 160.665 141.348 160.64C141.281 160.615 141.696 159.34 142.275 157.792C142.855 156.246 143.379 155.012 143.446 155.037Z" fill="#1e282e"/>
<path d="M176.734 161.502C176.734 161.487 176.805 161.467 176.923 161.51C177.041 161.551 177.192 161.671 177.292 161.87C177.386 162.059 177.454 162.372 177.273 162.649C177.103 162.906 176.78 163.103 176.404 163.051C176.021 162.979 175.797 162.647 175.749 162.352C175.696 162.043 175.824 161.762 175.999 161.614C176.177 161.459 176.376 161.443 176.491 161.453C176.611 161.464 176.67 161.496 176.668 161.512C176.676 161.562 176.376 161.494 176.127 161.746C176.012 161.871 175.934 162.088 175.985 162.307C176.03 162.525 176.21 162.755 176.448 162.794C176.687 162.833 176.95 162.693 177.074 162.516C177.206 162.342 177.182 162.112 177.123 161.943C176.994 161.585 176.724 161.535 176.734 161.502Z" fill="#1e282e"/>
<path d="M143.398 115.344C143.392 115.354 143.221 115.265 142.905 115.088C142.564 114.894 142.107 114.633 141.537 114.307L141.633 114.265C141.363 115.631 141.101 117.642 140.643 120.052L140.612 120.212L140.473 120.124C138.461 118.856 136.047 117.407 133.471 115.85C131.551 114.701 129.756 113.54 128.103 112.538C126.441 111.543 124.922 110.682 123.644 109.965C122.383 109.264 121.354 108.691 120.609 108.277C120.271 108.087 119.998 107.933 119.786 107.814C119.599 107.706 119.503 107.646 119.507 107.638C119.511 107.63 119.615 107.675 119.811 107.768C120.028 107.876 120.309 108.015 120.657 108.188C121.389 108.559 122.442 109.107 123.733 109.804C125.024 110.501 126.553 111.346 128.226 112.331C129.882 113.346 131.699 114.459 133.606 115.627C136.18 117.183 138.591 118.646 140.593 119.934L140.423 120.006C140.902 117.615 141.197 115.602 141.507 114.238L141.527 114.149L141.603 114.196C142.16 114.544 142.607 114.822 142.939 115.03C143.245 115.225 143.404 115.334 143.398 115.344Z" fill="#1e282e"/>
<g opacity="0.3">
<path d="M122.553 109.257C126.323 112.066 130.093 114.875 133.863 117.684C136.351 119.538 138.899 121.423 141.854 122.372C141.799 119.752 141.745 117.132 141.69 114.512L140.533 120.029L122.553 109.257Z" fill="black"/>
</g>
<path d="M239.014 69.8889C237.045 70.1524 234.993 68.7419 234.533 66.8094C234.073 64.8769 235.27 62.6939 237.146 62.0419C235.895 60.8079 235.547 58.7514 236.324 57.1749C237.101 55.5984 238.944 54.6209 240.685 54.8619C240.723 53.1269 241.727 51.4449 243.236 50.5869C244.744 49.7294 246.703 49.7269 248.214 50.5809C250.098 48.9009 253.186 48.7794 255.197 50.3059C256.876 49.9619 258.73 50.8239 259.55 52.3284C260.37 53.8329 260.089 55.8589 258.891 57.0834" fill="#1e282e"/>
<path d="M238.437 70.4693C238.975 61.5218 246.294 54.4893 255.256 54.3073L256.146 54.2893C265.759 54.6548 270.819 63.0228 270.188 72.6223L270.76 106.87L247.401 115.255L247.197 102.921C247.197 102.921 237.937 101.674 237.635 92.4478C237.489 87.9913 237.936 78.7908 238.437 70.4693Z" fill="#ae7461"/>
<path d="M247.12 102.909C247.12 102.909 253.021 103.144 259.141 99.1235C259.141 99.1235 256.432 105.823 247.206 105.18L247.12 102.909Z" fill="#6F4439"/>
<path d="M241.03 78.8135C241.019 79.51 241.6 80.093 242.328 80.1175C243.054 80.1415 243.652 79.598 243.662 78.9015C243.673 78.205 243.092 77.621 242.366 77.5965C241.638 77.5725 241.04 78.117 241.03 78.8135Z" fill="#1e282e"/>
<path d="M240.51 74.9435C240.677 75.112 241.66 74.3525 243.078 74.3275C244.495 74.282 245.55 74.9905 245.7 74.814C245.774 74.7355 245.602 74.4285 245.142 74.108C244.689 73.7885 243.922 73.4845 243.038 73.506C242.155 73.529 241.418 73.8695 240.998 74.211C240.569 74.5545 240.428 74.8685 240.51 74.9435Z" fill="#1e282e"/>
<path d="M253.95 78.814C253.939 79.5105 254.521 80.0935 255.248 80.1175C255.974 80.142 256.572 79.5985 256.582 78.9015C256.593 78.2055 256.011 77.6215 255.285 77.597C254.558 77.5725 253.96 78.1175 253.95 78.814Z" fill="#1e282e"/>
<path d="M254.458 74.9225C254.625 75.091 255.609 74.332 257.027 74.307C258.443 74.2615 259.499 74.97 259.649 74.793C259.723 74.7145 259.552 74.408 259.09 74.087C258.637 73.7675 257.87 73.4635 256.986 73.485C256.103 73.508 255.366 73.8485 254.946 74.19C254.518 74.5335 254.376 74.8475 254.458 74.9225Z" fill="#1e282e"/>
<path d="M249.525 85.5475C249.53 85.4665 248.645 85.332 247.213 85.1785C246.85 85.1485 246.506 85.0835 246.44 84.8375C246.35 84.5775 246.493 84.1845 246.66 83.759C246.983 82.876 247.32 81.95 247.675 80.9795C249.082 77.023 250.093 73.773 249.933 73.7175C249.773 73.6625 248.503 76.8245 247.096 80.781C246.757 81.7565 246.434 82.6865 246.126 83.576C245.998 83.9905 245.771 84.462 245.967 85.001C246.07 85.2695 246.34 85.461 246.573 85.5185C246.807 85.5845 247.011 85.5845 247.19 85.5915C248.629 85.6395 249.521 85.6275 249.525 85.5475Z" fill="#1e282e"/>
<path d="M253.93 70.1057C254.124 70.4612 255.331 70.0468 256.827 69.9683C258.321 69.8558 259.587 70.1118 259.717 69.7353C259.772 69.5563 259.5 69.2388 258.955 68.9618C258.414 68.6848 257.596 68.4788 256.7 68.5353C255.804 68.5938 255.032 68.9013 254.546 69.2443C254.056 69.5868 253.843 69.9357 253.93 70.1057Z" fill="#1e282e"/>
<path d="M240.238 69.927C240.544 70.243 241.707 69.8845 243.115 69.8405C244.52 69.755 245.719 70.004 245.986 69.6615C246.103 69.4955 245.909 69.1765 245.382 68.8825C244.863 68.589 243.999 68.358 243.032 68.4025C242.066 68.448 241.233 68.757 240.75 69.0965C240.26 69.4375 240.103 69.7725 240.238 69.927Z" fill="#1e282e"/>
<path d="M239.238 66.2188C239.238 66.2188 241.554 60.3898 244.314 58.9843C247.654 57.2828 249.182 60.9563 252.379 59.9923C255.576 59.0283 258.764 57.3958 262.101 59.8143C265.753 62.4613 264.106 64.4043 264.412 68.4948C265.651 85.0778 268.778 89.7108 269.481 81.8738C269.558 81.0153 271.922 80.2853 272.201 76.6588C272.562 71.9558 272.626 66.2533 271.511 62.9438C270.571 60.1543 268.931 58.2473 266.017 56.1673C261.417 52.8838 255.191 52.9383 250.973 53.4493C246.756 53.9603 238.705 58.9898 239.238 66.2188Z" fill="#1e282e"/>
<path d="M268.887 81.6345C268.916 80.209 270.121 79.0595 271.543 79.1655C273.267 79.294 275.202 80.2325 275.161 83.7915C275.088 90.105 268.765 88.7295 268.756 88.548C268.75 88.425 268.833 84.276 268.887 81.6345Z" fill="#ae7461"/>
<path d="M270.158 86.1885C270.186 86.169 270.267 86.267 270.452 86.354C270.632 86.439 270.943 86.5 271.274 86.3805C271.944 86.1435 272.517 85.091 272.561 83.9535C272.584 83.3795 272.47 82.831 272.271 82.3755C272.084 81.9115 271.789 81.5855 271.454 81.522C271.12 81.4405 270.88 81.639 270.801 81.816C270.715 81.9915 270.753 82.118 270.72 82.1285C270.702 82.144 270.586 82.021 270.639 81.761C270.667 81.636 270.743 81.488 270.892 81.3685C271.045 81.247 271.269 81.1865 271.502 81.215C271.989 81.254 272.422 81.707 272.64 82.207C272.885 82.7095 273.026 83.326 273.001 83.971C272.945 85.243 272.281 86.426 271.365 86.679C270.919 86.7895 270.55 86.6515 270.361 86.5005C270.167 86.341 270.136 86.1995 270.158 86.1885Z" fill="#6F4439"/>
<path d="M268.516 69.4124C267.708 69.9884 266.854 70.5829 265.868 70.7009C264.883 70.8189 263.742 70.2749 263.556 69.2999C263.472 68.8624 263.569 68.3504 263.273 68.0169C262.92 67.6189 262.287 67.7589 261.76 67.8254C259.929 68.0574 258.024 66.7979 257.521 65.0229C257.067 65.7329 255.975 65.7249 255.257 65.2829C254.54 64.8409 254.069 64.1034 253.502 63.4799C252.935 62.8569 252.146 62.3049 251.314 62.4404C250.849 62.5159 250.418 62.8029 249.948 62.7709C249.118 62.7139 248.693 61.7524 248.551 60.9324C248.409 60.1124 248.292 59.1549 247.581 58.7224C246.923 58.3214 246.085 58.5779 245.324 58.7059C244.564 58.8339 243.575 58.6749 243.365 57.9329C243.254 57.5439 243.414 57.1289 243.624 56.7829C244.575 55.2164 246.703 54.4854 248.416 55.1379C248.991 53.0404 250.907 51.3784 253.065 51.1064C255.223 50.8339 257.493 51.9684 258.57 53.8574C259.879 52.6204 261.806 52.0729 263.57 52.4379C265.334 52.8024 266.886 54.0689 267.597 55.7239C269.124 55.2889 270.885 55.8469 271.883 57.0814C272.881 58.3159 273.057 60.1554 272.312 61.5569C273.459 62.1819 274.453 63.2889 274.503 64.5944C274.553 65.8999 273.308 67.2269 272.04 66.9089C272.57 67.9154 272.184 69.3039 271.21 69.8919C270.237 70.4799 268.828 70.1759 268.184 69.2389" fill="#1e282e"/>
<path d="M247.985 57.0039C247.98 57.0044 247.981 57.0434 247.989 57.1194C247.999 57.1949 248.006 57.3094 248.036 57.4554C248.1 57.7454 248.226 58.1744 248.519 58.6619C248.813 59.1414 249.266 59.6934 249.948 60.1249C250.616 60.5619 251.528 60.8859 252.548 60.8094L252.438 60.6719C252.253 61.2154 252.32 61.8619 252.6 62.4114C252.866 62.9704 253.277 63.4624 253.711 63.9409C253.933 64.1704 254.128 64.4419 254.433 64.6504C254.729 64.8509 255.08 64.9634 255.44 65.0009C256.153 65.0774 256.952 64.8409 257.456 64.2319L257.218 64.1694C257.404 65.4204 258.144 66.6609 259.293 67.4029C259.901 67.8244 260.648 68.0739 261.378 68.0394C262.108 68.0174 262.782 67.7894 263.41 67.5499L263.24 67.4789C263.595 68.2564 264.13 68.9149 264.773 69.3959C265.404 69.8764 266.238 70.1489 266.984 69.9494C268.467 69.6039 269.429 68.3454 269.604 67.1749L269.463 67.2444C270.21 67.6319 271.004 67.6544 271.638 67.5189C272.28 67.3879 272.781 67.0974 273.136 66.8139C273.493 66.5249 273.7 66.2314 273.825 66.0284C273.939 65.8179 273.986 65.7019 273.979 65.6989C273.946 65.6734 273.78 66.1829 273.071 66.7304C272.717 66.9919 272.227 67.2579 271.608 67.3689C270.998 67.4859 270.246 67.4469 269.556 67.0749L269.436 67.0104L269.414 67.1444C269.236 68.2364 268.308 69.4114 266.933 69.7159C266.258 69.8889 265.525 69.6449 264.927 69.1904C264.326 68.7364 263.816 68.1019 263.487 67.3709L263.434 67.2549L263.316 67.2999C262.698 67.5339 262.047 67.7479 261.372 67.7664C260.697 67.7949 260.026 67.5724 259.446 67.1734C258.361 66.4714 257.667 65.3109 257.485 64.1264L257.44 63.8289L257.247 64.0639C256.822 64.5849 256.108 64.8099 255.467 64.7424C255.145 64.7104 254.832 64.6119 254.574 64.4389C254.322 64.2734 254.119 64.0054 253.894 63.7739C253.461 63.3039 253.061 62.8304 252.808 62.3104C252.542 61.7969 252.481 61.2284 252.639 60.7364L252.687 60.5849L252.529 60.5989C251.568 60.6834 250.691 60.3909 250.039 59.9819C249.373 59.5789 248.922 59.0559 248.62 58.5984C248.025 57.6574 248.029 56.9884 247.985 57.0039Z" fill="#07415e"/>
<path d="M254.415 86.0356C254.189 86.0621 254.45 87.5501 253.363 88.8311C252.28 90.1151 250.665 90.2281 250.69 90.4381C250.686 90.5351 251.094 90.6646 251.767 90.5646C252.427 90.4711 253.349 90.0901 254.013 89.3071C254.675 88.5221 254.856 87.5991 254.799 86.9801C254.746 86.3481 254.515 86.0091 254.415 86.0356Z" fill="#1e282e"/>
<path d="M202.855 157.839C203.655 157.519 230.08 154.344 230.08 154.344L240.801 145.268L239.795 171.544L206.055 174.797L202.855 157.839Z" fill="#ff0049"/>
<path opacity="0.3" d="M236.061 149.28C235.74 149.441 233.092 151.794 233.092 151.794L233.899 172.028L236.061 149.28Z" fill="black"/>
<path d="M281.082 196.866H236.45C236.45 196.866 238.813 209.459 239.688 215.263C240.563 221.066 241.842 225.184 241.842 225.184H282.265C282.265 225.184 285.283 217.868 285.808 213.17C286.333 208.472 281.082 196.866 281.082 196.866Z" fill="#1e282e"/>
<path d="M233.124 198.386C233.124 198.386 231.877 212.741 233.124 225.184H248.584V213.719L233.124 198.386Z" fill="#1e282e"/>
<path d="M241.713 128.018L246.523 117.485L247.12 110.979C247.12 110.979 256.344 105.182 260.719 102.994C265.095 100.806 270.99 98.8257 270.99 98.8257V104.964L241.713 128.018Z" fill="#EBEBEB"/>
<path d="M281.917 181.814C281.917 181.814 284.53 146.705 284.707 144.096C284.707 144.096 286.25 125.337 282.919 118.193C279.588 111.05 272.134 104.772 272.134 104.772L271.448 101.022L256.889 110.198L250.159 116.051C250.159 116.051 246.339 120.084 243.809 123.952C241.899 126.595 239.775 129.996 238.83 134.272C238.484 135.835 234.479 154.524 234.359 167.552C234.359 167.552 233.744 178.917 233.087 185.355C232.275 193.323 231.037 211.488 231.306 222.25L278.482 220.809C290.141 219.03 288.09 217.871 288.09 217.871L281.917 181.814Z" fill="#ff0049"/>
<path d="M270.99 104.965C270.99 104.965 270.88 105.022 270.663 105.114C270.433 105.21 270.112 105.344 269.7 105.517C269.289 105.715 268.789 105.976 268.201 106.281C267.638 106.63 266.966 106.991 266.27 107.487C263.44 109.386 259.705 112.604 255.904 117.067L255.877 117.099L255.838 117.106C254.402 117.37 252.884 117.649 251.312 117.938L251.409 117.825C251.338 119.928 251.264 122.135 251.187 124.419L251.185 124.471L251.146 124.508C248.879 126.654 246.576 129.084 244.491 131.803C243.645 132.918 242.865 134.063 242.209 135.252L241.962 135.697L241.774 136.161C241.645 136.468 241.523 136.777 241.432 137.103C241.23 137.742 241.031 138.376 240.867 139.017C240.168 141.567 239.592 144.055 239.052 146.426C237.978 151.17 237.083 155.459 236.342 159.063C234.861 166.271 234.027 170.744 234.027 170.744C234.027 170.744 234.038 170.458 234.128 169.924C234.21 169.388 234.347 168.601 234.527 167.588C234.893 165.562 235.445 162.636 236.161 159.026C236.88 155.417 237.756 151.123 238.818 146.373C239.352 143.999 239.924 141.508 240.621 138.949C240.785 138.307 240.985 137.667 241.188 137.022C241.278 136.698 241.403 136.378 241.537 136.059L241.732 135.579L241.982 135.128C242.646 133.922 243.432 132.767 244.283 131.646C246.383 128.908 248.691 126.478 250.975 124.322L250.934 124.41C251.016 122.126 251.096 119.919 251.172 117.817L251.175 117.721L251.269 117.704C252.842 117.42 254.361 117.146 255.798 116.887L255.732 116.925C259.569 112.456 263.332 109.256 266.198 107.378C266.902 106.889 267.582 106.534 268.153 106.193C268.748 105.896 269.255 105.643 269.672 105.454C270.091 105.295 270.417 105.17 270.651 105.082C270.873 104.999 270.99 104.965 270.99 104.965Z" fill="#1e282e"/>
<path d="M255.152 132.708L255.718 179.556L248.584 225.183H267.391C267.391 225.183 275.939 190.539 277.929 183.259C279.862 176.189 282.758 140.605 283.015 138.858C283.116 138.173 285.155 125.884 279.152 120.086" fill="#ff0049"/>
<path d="M279.153 120.087C279.153 120.087 279.289 120.216 279.546 120.478C279.802 120.74 280.161 121.154 280.574 121.741C281.396 122.909 282.365 124.84 282.923 127.514C283.485 130.179 283.683 133.546 283.28 137.398C282.998 139.317 282.856 141.369 282.648 143.556C282.45 145.739 282.24 148.048 282.02 150.473C281.571 155.322 281.065 160.634 280.453 166.334C280.139 169.183 279.813 172.13 279.411 175.16C279.001 178.184 278.602 181.32 277.755 184.447C274.613 196.961 271.155 210.734 267.519 225.215L267.494 225.314H267.392C266.752 225.314 266.058 225.314 265.363 225.314C259.656 225.314 254.05 225.313 248.585 225.313H248.434L248.458 225.164C251.097 208.335 253.533 192.802 255.613 179.54L255.612 179.558C255.459 165.372 255.334 153.661 255.246 145.491C255.209 141.412 255.18 138.218 255.161 136.038C255.155 134.954 255.15 134.123 255.146 133.557C255.145 132.997 255.152 132.708 255.152 132.708C255.152 132.708 255.167 132.997 255.179 133.557C255.189 134.123 255.204 134.954 255.224 136.037C255.257 138.218 255.306 141.411 255.367 145.49C255.477 153.66 255.634 165.369 255.824 179.555V179.564L255.823 179.573C253.755 192.838 251.334 208.373 248.711 225.204L248.584 225.056C254.049 225.055 259.655 225.055 265.362 225.054C266.057 225.054 266.751 225.054 267.391 225.054L267.265 225.153C270.909 210.672 274.374 196.899 277.523 184.384C278.369 181.277 278.77 178.154 279.184 175.13C279.59 172.104 279.92 169.158 280.239 166.311C280.86 160.614 281.377 155.303 281.837 150.456C282.063 148.032 282.279 145.724 282.483 143.541C282.697 141.364 282.848 139.288 283.135 137.383C283.551 133.546 283.368 130.191 282.823 127.534C282.282 124.87 281.335 122.943 280.53 121.77C280.126 121.182 279.774 120.764 279.526 120.496C279.276 120.229 279.153 120.087 279.153 120.087Z" fill="#1e282e"/>
<path d="M265.099 184.166C265.088 184.199 264.53 184.047 263.645 183.745C262.761 183.444 261.554 182.984 260.25 182.406C258.947 181.826 257.795 181.239 256.979 180.786C256.162 180.333 255.675 180.02 255.692 179.99C255.71 179.957 256.228 180.213 257.064 180.623C257.9 181.033 259.058 181.591 260.356 182.168C261.654 182.743 262.844 183.228 263.709 183.573C264.574 183.918 265.111 184.13 265.099 184.166Z" fill="#1e282e"/>
<path d="M232.902 187.272C232.897 187.271 232.896 187.23 232.897 187.149C232.901 187.052 232.905 186.935 232.91 186.79C232.928 186.453 232.952 185.993 232.984 185.412C233.061 184.193 233.171 182.469 233.306 180.347C233.595 176.072 234.007 170.166 234.583 163.653C235.161 157.137 235.826 151.252 236.368 147.001C236.641 144.875 236.872 143.157 237.046 141.971C237.132 141.395 237.2 140.94 237.25 140.607C237.274 140.464 237.293 140.348 237.309 140.253C237.324 140.173 237.334 140.133 237.338 140.133C237.343 140.134 237.342 140.175 237.336 140.256C237.327 140.352 237.316 140.47 237.302 140.614C237.264 140.948 237.212 141.406 237.146 141.985C237.003 143.197 236.8 144.913 236.551 147.023C236.056 151.279 235.42 157.163 234.843 163.676C234.267 170.187 233.826 176.089 233.491 180.361C233.321 182.48 233.183 184.202 233.086 185.419C233.034 185.999 232.993 186.458 232.963 186.794C232.948 186.938 232.935 187.055 232.925 187.151C232.914 187.231 232.906 187.272 232.902 187.272Z" fill="#1e282e"/>
<path d="M270.99 114.176C270.908 114.203 270.447 112.376 269.22 110.444C268.011 108.5 266.564 107.292 266.624 107.231C266.644 107.207 267.029 107.476 267.578 108.002C268.126 108.526 268.821 109.322 269.441 110.305C270.058 111.289 270.474 112.261 270.708 112.982C270.944 113.704 271.02 114.168 270.99 114.176Z" fill="#1e282e"/>
<path d="M237.803 172.382C237.817 172.379 237.864 172.497 237.849 172.722C237.833 172.942 237.735 173.279 237.441 173.57C237.165 173.865 236.617 174.076 236.084 173.878C235.823 173.789 235.574 173.62 235.387 173.38C235.199 173.142 235.096 172.815 235.105 172.501C235.11 172.098 235.235 171.712 235.467 171.411C235.584 171.262 235.734 171.137 235.905 171.065C236.085 170.998 236.216 170.967 236.365 170.919L236.383 170.913L236.4 170.914C236.74 170.922 237.071 170.996 237.307 171.174C237.546 171.347 237.666 171.584 237.727 171.77C237.842 172.154 237.82 172.38 237.803 172.382C237.772 172.388 237.745 172.162 237.602 171.819C237.527 171.652 237.407 171.459 237.2 171.329C236.998 171.192 236.711 171.14 236.399 171.142L236.434 171.136C236.298 171.184 236.125 171.236 236.002 171.286C235.875 171.344 235.759 171.441 235.665 171.566C235.478 171.814 235.368 172.157 235.365 172.503C235.338 173.052 235.727 173.495 236.164 173.653C236.606 173.827 237.051 173.678 237.314 173.436C237.588 173.198 237.704 172.906 237.748 172.708C237.793 172.505 237.782 172.384 237.803 172.382Z" fill="#1e282e"/>
<path d="M237.103 188.947C237.116 188.944 237.164 189.062 237.149 189.287C237.133 189.507 237.035 189.844 236.741 190.135C236.466 190.43 235.917 190.641 235.384 190.443C235.123 190.354 234.874 190.185 234.687 189.945C234.499 189.707 234.396 189.38 234.405 189.066C234.411 188.663 234.535 188.277 234.767 187.976C234.884 187.827 235.034 187.702 235.206 187.63C235.386 187.563 235.516 187.532 235.665 187.484L235.684 187.478L235.7 187.479C236.041 187.487 236.371 187.561 236.607 187.739C236.847 187.912 236.966 188.149 237.027 188.336C237.142 188.719 237.12 188.945 237.103 188.947C237.072 188.953 237.045 188.727 236.902 188.384C236.827 188.217 236.707 188.024 236.5 187.894C236.298 187.757 236.011 187.705 235.699 187.707L235.734 187.701C235.598 187.749 235.425 187.801 235.302 187.851C235.175 187.909 235.059 188.006 234.965 188.131C234.778 188.379 234.668 188.722 234.665 189.068C234.638 189.617 235.027 190.06 235.464 190.218C235.906 190.392 236.351 190.243 236.614 190.001C236.888 189.763 237.004 189.471 237.048 189.273C237.093 189.07 237.082 188.949 237.103 188.947Z" fill="#1e282e"/>
<path d="M277.035 117.314C277.009 117.359 276.388 116.961 275.291 116.541C274.744 116.326 274.071 116.132 273.312 115.977C272.55 115.838 271.701 115.747 270.806 115.753C269.912 115.771 269.065 115.886 268.307 116.046C267.553 116.222 266.885 116.434 266.345 116.664C265.259 117.115 264.65 117.529 264.622 117.486C264.612 117.471 264.759 117.361 265.035 117.175C265.172 117.079 265.343 116.968 265.554 116.86C265.763 116.749 265.995 116.608 266.271 116.496C266.811 116.24 267.486 116.005 268.253 115.813C269.024 115.636 269.889 115.511 270.803 115.493C271.717 115.486 272.584 115.587 273.359 115.743C274.131 115.914 274.812 116.13 275.359 116.371C275.639 116.476 275.875 116.609 276.087 116.715C276.3 116.817 276.475 116.923 276.614 117.016C276.895 117.193 277.045 117.299 277.035 117.314Z" fill="#1e282e"/>
<g opacity="0.3">
<path d="M235.839 161.136C237.876 158.171 238.624 155.375 239.712 151.947C241.33 146.852 241.781 141.095 244.319 136.391C245.814 133.62 247.572 130.778 250.171 129.001C252.706 127.269 253.081 125.066 253.031 119.108C254.843 119.126 256.759 117.729 256.986 117.485C258.221 116.158 259.114 114.052 259.208 113.321C257.937 114.703 255.818 116.996 255.818 116.996C255.818 116.996 251.223 117.85 251.29 117.82C251.177 120.112 251.173 122.122 251.06 124.414C251.06 124.414 242.244 133.768 241.558 135.648C240.872 137.529 235.839 161.136 235.839 161.136Z" fill="black"/>
</g>
<g opacity="0.3">
<path d="M268.57 219.532C279.743 198.386 283.215 170.581 282.55 144.096C282.55 144.096 279.343 176.288 278.262 181.814C277.189 187.301 268.57 219.532 268.57 219.532Z" fill="black"/>
</g>
<path d="M270.276 101.562C270.281 101.569 270.195 101.635 270.026 101.753C269.833 101.884 269.586 102.052 269.281 102.258C268.601 102.706 267.663 103.322 266.517 104.075C264.145 105.604 260.914 107.685 257.346 109.985C255.964 110.866 254.633 111.715 253.388 112.509L253.397 112.502C252.965 112.837 252.543 113.163 252.133 113.48C251.713 113.788 251.353 114.102 251.004 114.444C250.312 115.113 249.695 115.764 249.141 116.354L249.041 116.461L248.983 116.328C248.384 114.944 247.894 113.812 247.54 112.993C247.384 112.618 247.258 112.315 247.16 112.08C247.076 111.87 247.036 111.758 247.045 111.754C247.053 111.75 247.11 111.855 247.211 112.058C247.321 112.287 247.462 112.583 247.637 112.95C248.011 113.76 248.527 114.88 249.158 116.251L249 116.225C249.547 115.624 250.156 114.965 250.848 114.283C251.185 113.943 251.579 113.596 251.991 113.289C252.398 112.971 252.816 112.643 253.245 112.306L253.249 112.303L253.254 112.3C254.497 111.503 255.826 110.65 257.205 109.765C260.791 107.49 264.036 105.431 266.419 103.918C267.584 103.194 268.536 102.602 269.228 102.172C269.543 101.982 269.798 101.828 269.998 101.708C270.176 101.605 270.272 101.554 270.276 101.562Z" fill="#1e282e"/>
<path d="M224.16 78.4765L217.914 77.7475C215.397 80.3035 212.165 82.2175 208.426 83.1365C197.673 85.779 186.814 79.2045 184.172 68.4515C181.529 57.6985 188.104 46.8395 198.857 44.197C209.609 41.5545 220.468 48.129 223.111 58.882C224.215 63.372 223.706 67.878 221.962 71.799L221.969 71.79L224.16 78.4765Z" fill="white"/>
<path d="M224.16 78.4765C224.16 78.4765 224.104 78.324 224.005 78.0345C223.904 77.7375 223.76 77.3115 223.571 76.753C223.191 75.624 222.634 73.966 221.91 71.8095L222.018 71.829L222.011 71.838C221.989 71.865 221.95 71.8695 221.923 71.848C221.9 71.83 221.894 71.799 221.905 71.7735C222.952 69.378 223.87 66.0135 223.527 62.0305C223.443 61.04 223.285 60.0165 223.029 58.9795C222.723 57.9565 222.444 56.885 221.963 55.85C221.07 53.7615 219.761 51.6925 218.003 49.872C216.251 48.0515 214.054 46.4835 211.526 45.397C209.004 44.308 206.15 43.7065 203.21 43.7675C197.336 43.8345 191.14 46.852 187.421 52.1535C185.54 54.849 184.284 57.936 183.915 61.081C183.51 64.218 183.867 67.363 184.837 70.1985C185.797 73.0435 187.426 75.5385 189.372 77.5415C191.324 79.5475 193.617 81.054 195.982 82.0435C198.348 83.0375 200.782 83.514 203.076 83.5845C203.363 83.588 203.648 83.592 203.931 83.5955C204.214 83.604 204.495 83.604 204.772 83.569C205.326 83.52 205.872 83.472 206.408 83.4245C207.463 83.214 208.494 83.065 209.446 82.7575C213.29 81.6015 216.069 79.5225 217.872 77.7055C217.885 77.692 217.904 77.686 217.922 77.688C219.935 77.939 221.486 78.1325 222.543 78.2645C223.066 78.3315 223.465 78.3825 223.745 78.418C224.016 78.4535 224.16 78.4765 224.16 78.4765C224.16 78.4765 224.032 78.4675 223.767 78.44C223.491 78.411 223.096 78.369 222.58 78.3145C221.51 78.1985 219.943 78.028 217.907 77.8065L217.956 77.789C216.16 79.6335 213.372 81.749 209.499 82.935C208.539 83.2495 207.499 83.4055 206.434 83.622C205.893 83.672 205.342 83.723 204.782 83.775C204.503 83.811 204.219 83.813 203.933 83.805C203.647 83.8025 203.359 83.8 203.069 83.7975C200.75 83.735 198.286 83.261 195.889 82.262C193.494 81.2675 191.169 79.748 189.187 77.72C187.213 75.695 185.557 73.169 184.58 70.2865C183.594 67.4145 183.228 64.226 183.638 61.044C184.011 57.8545 185.282 54.723 187.19 51.9895C187.405 51.641 187.671 51.332 187.93 51.0185L188.705 50.08L189.56 49.222C189.842 48.9335 190.125 48.648 190.444 48.404C190.754 48.149 191.062 47.8945 191.37 47.6405C191.671 47.3775 192.023 47.1845 192.346 46.9545C192.679 46.7385 192.997 46.5 193.34 46.305C193.688 46.1185 194.035 45.932 194.38 45.7465C197.167 44.3 200.224 43.5385 203.203 43.496C206.184 43.438 209.075 44.052 211.628 45.16C214.186 46.266 216.406 47.859 218.175 49.706C219.949 51.553 221.266 53.6505 222.161 55.765C222.643 56.8125 222.922 57.8965 223.225 58.931C223.48 59.9795 223.635 61.014 223.715 62.014C224.041 66.037 223.093 69.4225 222.019 71.8235L221.913 71.759L221.92 71.7505C221.941 71.7235 221.98 71.719 222.007 71.74C222.017 71.748 222.024 71.759 222.028 71.77C222.726 73.956 223.263 75.636 223.629 76.7805C223.804 77.335 223.938 77.758 224.031 78.053C224.121 78.338 224.16 78.4765 224.16 78.4765Z" fill="#1e282e"/>
<path d="M194.407 64.1309L196.806 61.4774L201.897 65.5629L209.457 56.8804L211.93 59.2884L201.781 70.4529L194.407 64.1309Z" fill="#1e282e"/>
<path d="M169.141 80.2106C170.048 80.0976 171.378 79.9316 173.104 79.7161C173.119 79.7146 173.135 79.7196 173.147 79.7311C174.693 81.2891 177.076 83.0716 180.371 84.0626C181.188 84.3261 182.072 84.4541 182.977 84.6346C183.436 84.6751 183.904 84.7166 184.379 84.7581C184.617 84.7881 184.857 84.7886 185.1 84.7811C185.342 84.7781 185.587 84.7751 185.833 84.7716C187.8 84.7111 189.887 84.3026 191.916 83.4501C192.436 83.2321 192.953 82.9841 193.462 82.7076C193.306 82.6476 193.15 82.5911 192.995 82.5261C190.647 81.5516 188.368 80.0621 186.426 78.0741C184.49 76.0896 182.868 73.6136 181.91 70.7881C180.943 67.9731 180.585 64.8476 180.986 61.7291C181.352 58.6026 182.598 55.5336 184.468 52.8541C184.679 52.5126 184.94 52.2096 185.193 51.9021L185.953 50.9826L186.279 50.6551C186.092 50.6461 185.904 50.6336 185.718 50.6311C183.196 50.5786 180.75 51.0946 178.587 52.0281C176.42 52.9601 174.536 54.3046 173.034 55.8651C171.527 57.4261 170.404 59.2001 169.639 60.9906C169.227 61.8776 168.987 62.7966 168.725 63.6736C168.505 64.5631 168.37 65.4406 168.298 66.2896C168.004 69.7051 168.791 72.5896 169.689 74.6436C169.699 74.6651 169.693 74.6911 169.674 74.7066C169.058 76.5396 168.584 77.9511 168.261 78.9131C168.099 79.3921 167.975 79.7571 167.888 80.0116C167.804 80.2596 167.755 80.3906 167.755 80.3906C167.755 80.3906 167.879 80.3711 168.112 80.3411C168.351 80.3116 168.693 80.2681 169.141 80.2106Z" fill="#F5F5F5"/>
<path d="M169.141 80.2104C169.141 80.2104 169.025 80.2354 168.794 80.2699C168.552 80.3049 168.208 80.3554 167.759 80.4204L167.712 80.4274L167.727 80.3814C168.114 79.2119 168.756 77.2709 169.611 74.6869L169.631 74.6574C169.621 74.6529 169.634 74.6894 169.62 74.6544L169.585 74.5734L169.515 74.4094C169.47 74.2989 169.424 74.1874 169.378 74.0744C169.286 73.8489 169.202 73.6144 169.116 73.3759C168.948 72.8974 168.798 72.3914 168.663 71.8624C168.398 70.8039 168.21 69.6449 168.162 68.4074C168.11 67.1709 168.191 65.8569 168.442 64.5074C168.559 63.8284 168.77 63.1539 168.975 62.4719C169.175 61.7834 169.463 61.0994 169.776 60.4249C171.029 57.7134 173.143 55.1049 176.03 53.2554C178.895 51.3994 182.525 50.3194 186.284 50.5284L186.569 50.5444L186.368 50.7459C186.267 50.8479 186.154 50.9604 186.042 51.0734L186.05 51.0644C183.756 53.6484 182.002 56.9224 181.303 60.5244C180.367 65.4619 181.361 70.5444 183.769 74.4564C186.162 78.3999 189.786 81.1874 193.5 82.6039L193.743 82.6964L193.513 82.8059C192.604 83.2384 191.728 83.6944 190.81 83.9819C189.9 84.2859 188.988 84.5069 188.091 84.6539C186.301 84.9514 184.548 84.9144 182.967 84.7249L182.96 84.7239L182.957 84.7234C182.381 84.6069 181.813 84.5114 181.262 84.3884C180.709 84.2714 180.186 84.0929 179.682 83.9254C178.677 83.5704 177.76 83.1514 176.941 82.6919C175.303 81.7709 174.055 80.7229 173.131 79.7874C173.124 79.7394 173.019 79.7869 172.944 79.7849C172.865 79.7944 172.787 79.8034 172.71 79.8124C172.556 79.8304 172.407 79.8484 172.263 79.8654C171.974 79.8994 171.705 79.9309 171.454 79.9604C170.955 80.0179 170.532 80.0664 170.186 80.1064C169.851 80.1424 169.592 80.1709 169.407 80.1909C169.232 80.2079 169.141 80.2104 169.141 80.2104C169.141 80.2104 169.23 80.1904 169.404 80.1644C169.589 80.1384 169.847 80.1019 170.181 80.0549C170.526 80.0084 170.948 79.9514 171.446 79.8849C171.696 79.8519 171.966 79.8164 172.254 79.7779C172.398 79.7589 172.547 79.7394 172.7 79.7194C172.777 79.7094 172.855 79.6989 172.934 79.6889L173.053 79.6734C173.08 79.6724 173.079 79.6649 173.128 79.6684C173.147 79.6719 173.167 79.6814 173.181 79.6959L173.203 79.7174C174.131 80.6359 175.38 81.6654 177.011 82.5664C178.643 83.4699 180.651 84.2099 182.993 84.5454L182.984 84.5439C183.786 84.6119 184.603 84.7039 185.448 84.6799C186.3 84.6744 187.17 84.5979 188.058 84.4529C188.945 84.3044 189.844 84.0829 190.742 83.7794C191.648 83.4929 192.511 83.0389 193.407 82.6099L193.42 82.8119C189.66 81.3904 185.984 78.5774 183.556 74.5869C181.109 70.6239 180.099 65.4789 181.047 60.4759C181.759 56.8179 183.535 53.5114 185.853 50.9024L185.86 50.8949L185.861 50.8934C185.974 50.7804 186.086 50.6679 186.188 50.5659L186.272 50.7829C182.567 50.5734 178.989 51.6314 176.159 53.4554C173.307 55.2734 171.214 57.8399 169.967 60.5144C169.652 61.1879 169.37 61.8489 169.169 62.5324C168.96 63.2164 168.75 63.8764 168.633 64.5444C168.379 65.8774 168.291 67.1779 168.336 68.4014C168.377 69.6264 168.557 70.7754 168.812 71.8264C168.942 72.3514 169.087 72.8539 169.251 73.3299C169.334 73.5674 169.416 73.8004 169.505 74.0249C169.55 74.1374 169.595 74.2484 169.639 74.3584L169.707 74.5214L169.741 74.6024C169.757 74.6164 169.773 74.7249 169.714 74.7589L169.734 74.7294C168.851 77.3179 168.193 79.2589 167.78 80.4024L167.748 80.3634C168.2 80.3104 168.545 80.2694 168.788 80.2409C169.023 80.2154 169.141 80.2104 169.141 80.2104Z" fill="#1e282e"/>
</svg>