<svg xmlns="http://www.w3.org/2000/svg" width="61" height="60" viewBox="0 0 61 60" fill="none">
<g id="idas 1">
<path id="Vector" opacity="0.5" d="M25.5 48.75H35.5M27.1667 55H33.8333" stroke="#ff0049" stroke-width="3.75" stroke-linecap="round" fill="#ffffff"/>
<path id="Vector_2" d="M19.0265 34.2012L21.7866 36.7991C22.5609 37.5279 23 38.5441 23 39.6075C23 41.205 24.295 42.5 25.8925 42.5H35.1075C36.705 42.5 38 41.205 38 39.6075C38 38.5441 38.4391 37.5279 39.2134 36.7991L41.9735 34.2012C45.8265 30.5468 47.9781 25.746 47.9998 20.7548L48 20.5452C48 12.0172 40.165 5 30.5 5C20.835 5 13 12.0172 13 20.5452L13.0002 20.7548C13.0219 25.746 15.1735 30.5468 19.0265 34.2012Z" stroke="#153259" stroke-width="3.75" fill="#ffffff"/>
<path id="Vector_3" opacity="0.5" d="M34 17.8296L34.1716 18.0012C35.5049 19.3345 36.1716 20.0012 36.1716 20.8296C36.1716 21.658 35.5049 22.3247 34.1716 23.658L34 23.8296" stroke="#ff0049" stroke-width="1.5" stroke-linecap="round" fill="#ffffff"/>
<path id="Vector_4" opacity="0.5" d="M31.7937 16L30.4996 20.8296L29.2056 25.6593" stroke="#ff0049" stroke-width="1.5" stroke-linecap="round" fill="#ffffff"/>
<path id="Vector_5" opacity="0.5" d="M26.9997 17.8296L26.8281 18.0012C25.4948 19.3345 24.8281 20.0012 24.8281 20.8296C24.8281 21.658 25.4948 22.3247 26.8281 23.658L26.9997 23.8296" stroke="#ff0049" stroke-width="1.5" stroke-linecap="round" fill="#ffffff"/>
</g>
</svg>