<svg width="20" height="21" viewBox="0 0 20 21" fill="none" xmlns="http://www.w3.org/2000/svg">
<path d="M14.4498 5.20023C14.2521 5.20023 14.0587 5.25888 13.8943 5.36876C13.7298 5.47864 13.6016 5.63482 13.526 5.81754C13.4503 6.00027 13.4305 6.20134 13.4691 6.39532C13.5076 6.5893 13.6029 6.76748 13.7427 6.90733C13.8826 7.04719 14.0608 7.14243 14.2547 7.18101C14.4487 7.2196 14.6498 7.19979 14.8325 7.12411C15.0152 7.04842 15.1714 6.92025 15.2813 6.7558C15.3912 6.59135 15.4498 6.39801 15.4498 6.20023C15.4498 5.93501 15.3445 5.68066 15.1569 5.49312C14.9694 5.30558 14.7151 5.20023 14.4498 5.20023ZM18.2832 7.21689C18.267 6.52548 18.1375 5.8414 17.8998 5.19189C17.6879 4.63617 17.3582 4.13296 16.9332 3.71689C16.5205 3.28975 16.0161 2.96204 15.4582 2.75856C14.8104 2.5137 14.1255 2.38124 13.4332 2.36689C12.5498 2.31689 12.2665 2.31689 9.99984 2.31689C7.73317 2.31689 7.44984 2.31689 6.5665 2.36689C5.87413 2.38124 5.18929 2.5137 4.5415 2.75856C3.98457 2.9641 3.48062 3.29153 3.0665 3.71689C2.63936 4.12954 2.31165 4.63393 2.10817 5.19189C1.8633 5.83968 1.73085 6.52452 1.7165 7.21689C1.6665 8.10023 1.6665 8.38356 1.6665 10.6502C1.6665 12.9169 1.6665 13.2002 1.7165 14.0836C1.73085 14.7759 1.8633 15.4608 2.10817 16.1086C2.31165 16.6665 2.63936 17.1709 3.0665 17.5836C3.48062 18.0089 3.98457 18.3364 4.5415 18.5419C5.18929 18.7868 5.87413 18.9192 6.5665 18.9336C7.44984 18.9836 7.73317 18.9836 9.99984 18.9836C12.2665 18.9836 12.5498 18.9836 13.4332 18.9336C14.1255 18.9192 14.8104 18.7868 15.4582 18.5419C16.0161 18.3384 16.5205 18.0107 16.9332 17.5836C17.36 17.169 17.6901 16.6654 17.8998 16.1086C18.1375 15.4591 18.267 14.775 18.2832 14.0836C18.2832 13.2002 18.3332 12.9169 18.3332 10.6502C18.3332 8.38356 18.3332 8.10023 18.2832 7.21689ZM16.7832 13.9836C16.7771 14.5125 16.6813 15.0366 16.4998 15.5336C16.3668 15.8962 16.1531 16.2239 15.8748 16.4919C15.6045 16.7673 15.2775 16.9806 14.9165 17.1169C14.4196 17.2984 13.8955 17.3942 13.3665 17.4002C12.5332 17.4419 12.2248 17.4502 10.0332 17.4502C7.8415 17.4502 7.53317 17.4502 6.69984 17.4002C6.15058 17.4105 5.60367 17.3259 5.08317 17.1502C4.73799 17.007 4.42597 16.7942 4.1665 16.5252C3.88991 16.2575 3.67887 15.9296 3.54984 15.5669C3.34638 15.0629 3.23354 14.5268 3.2165 13.9836C3.2165 13.1502 3.1665 12.8419 3.1665 10.6502C3.1665 8.45856 3.1665 8.15023 3.2165 7.31689C3.22024 6.77611 3.31896 6.24018 3.50817 5.73356C3.65488 5.38182 3.88006 5.06828 4.1665 4.81689C4.41968 4.53037 4.73258 4.30281 5.08317 4.15023C5.59113 3.96693 6.1265 3.87113 6.6665 3.86689C7.49984 3.86689 7.80817 3.81689 9.99984 3.81689C12.1915 3.81689 12.4998 3.81689 13.3332 3.86689C13.8621 3.87296 14.3863 3.96877 14.8832 4.15023C15.2619 4.29077 15.6017 4.51927 15.8748 4.81689C16.1479 5.07288 16.3613 5.38584 16.4998 5.73356C16.685 6.24101 16.7809 6.77671 16.7832 7.31689C16.8248 8.15023 16.8332 8.45856 16.8332 10.6502C16.8332 12.8419 16.8248 13.1502 16.7832 13.9836ZM9.99984 6.37523C9.15468 6.37687 8.32897 6.629 7.62705 7.09974C6.92513 7.57049 6.37849 8.23872 6.0562 9.02002C5.73391 9.80132 5.65044 10.6606 5.81633 11.4893C5.98222 12.3181 6.39003 13.079 6.98823 13.676C7.58643 14.2731 8.34818 14.6794 9.17722 14.8437C10.0063 15.008 10.8654 14.9228 11.6461 14.599C12.4267 14.2752 13.0939 13.7273 13.5633 13.0244C14.0327 12.3216 14.2832 11.4954 14.2832 10.6502C14.2843 10.0878 14.1742 9.53073 13.9592 9.01102C13.7442 8.49132 13.4286 8.01924 13.0306 7.62194C12.6325 7.22464 12.1598 6.90996 11.6397 6.696C11.1195 6.48204 10.5622 6.37303 9.99984 6.37523ZM9.99984 13.4252C9.45099 13.4252 8.91448 13.2625 8.45813 12.9576C8.00178 12.6526 7.6461 12.2192 7.43607 11.7122C7.22604 11.2051 7.17108 10.6471 7.27816 10.1089C7.38523 9.57055 7.64952 9.0761 8.03762 8.68801C8.42571 8.29992 8.92016 8.03562 9.45846 7.92855C9.99676 7.82147 10.5547 7.87643 11.0618 8.08646C11.5688 8.29649 12.0022 8.65217 12.3072 9.10852C12.6121 9.56487 12.7748 10.1014 12.7748 10.6502C12.7748 11.0146 12.7031 11.3755 12.5636 11.7122C12.4241 12.0489 12.2197 12.3548 11.9621 12.6124C11.7044 12.8701 11.3985 13.0745 11.0618 13.214C10.7251 13.3534 10.3643 13.4252 9.99984 13.4252Z" fill="#777777"/>
</svg>
