<svg width="21" height="21" viewBox="0 0 21 21" fill="none" xmlns="http://www.w3.org/2000/svg">
<path d="M7.39209 16.4835H4.89209V8.15015H7.39209V16.4835ZM16.5588 16.4835H14.0588V12.0318C14.0588 10.8718 13.6454 10.2943 12.8263 10.2943C12.1771 10.2943 11.7654 10.6176 11.5588 11.2651V16.4835H9.05876C9.05876 16.4835 9.09209 8.98348 9.05876 8.15015H11.0321L11.1846 9.81681H11.2363C11.7488 8.98348 12.5679 8.41848 13.6913 8.41848C14.5454 8.41848 15.2363 8.65598 15.7638 9.25265C16.2946 9.85015 16.5588 10.6518 16.5588 11.7776V16.4835Z" fill="#777777"/>
<path d="M6.14225 7.31689C6.85562 7.31689 7.43392 6.75725 7.43392 6.06689C7.43392 5.37654 6.85562 4.81689 6.14225 4.81689C5.42888 4.81689 4.85059 5.37654 4.85059 6.06689C4.85059 6.75725 5.42888 7.31689 6.14225 7.31689Z" fill="#777777"/>
</svg>
