<svg xmlns="http://www.w3.org/2000/svg" width="61" height="60" viewBox="0 0 61 60" fill="none">
<g id="Monitor Smartphone 1">
<path id="Vector" opacity="0.5" d="M28 32.5H5.5" stroke="#3e92cc" stroke-width="3.75" stroke-linecap="round" fill="#ffffff"/>
<path id="Vector_2" opacity="0.5" d="M28 55V56.875C29.0355 56.875 29.875 56.0355 29.875 55H28ZM20.5 53.125C19.4645 53.125 18.625 53.9645 18.625 55C18.625 56.0355 19.4645 56.875 20.5 56.875V53.125ZM29.875 42.5C29.875 41.4645 29.0355 40.625 28 40.625C26.9645 40.625 26.125 41.4645 26.125 42.5H29.875ZM28 53.125H20.5V56.875H28V53.125ZM29.875 55V42.5H26.125V55H29.875Z" fill="#3e92cc"/>
<path id="Vector_3" d="M28 42.5H20.5C13.4289 42.5 9.8934 42.5 7.6967 40.3033C5.5 38.1066 5.5 34.5711 5.5 27.5V25C5.5 15.5719 5.5 10.8579 8.42893 7.92893C11.3579 5 16.0719 5 25.5 5H39.25C45.0866 5 48.0049 5 50.214 6.18079C51.9582 7.11312 53.3869 8.54176 54.3192 10.286C55.5 12.4951 55.5 15.4134 55.5 21.25" stroke="#0a2463" stroke-width="3.75" stroke-linecap="round" fill="#ffffff"/>
<path id="Vector_4" d="M35.5 37.5C35.5 32.786 35.5 30.4289 36.9645 28.9645C38.4289 27.5 40.786 27.5 45.5 27.5C50.214 27.5 52.5711 27.5 54.0355 28.9645C55.5 30.4289 55.5 32.786 55.5 37.5V45C55.5 49.714 55.5 52.0711 54.0355 53.5355C52.5711 55 50.214 55 45.5 55C40.786 55 38.4289 55 36.9645 53.5355C35.5 52.0711 35.5 49.714 35.5 45V37.5Z" stroke="#0a2463" stroke-width="3.75" fill="#ffffff"/>
<path id="Vector_5" opacity="0.5" d="M48 50H43" stroke="#3e92cc" stroke-width="3.75" stroke-linecap="round" fill="#ffffff"/>
</g>
</svg>