<svg width="176" height="54" viewBox="0 0 176 54" fill="none" xmlns="http://www.w3.org/2000/svg">
<path d="M76.9305 26.6717H75.5029C75.2388 26.6717 75.0254 26.4583 75.0254 26.1941V23.3365C75.0254 23.0723 75.2388 22.8589 75.5029 22.8589H76.9305C79.0338 22.8589 80.7407 21.1519 80.7407 19.0487V13.8108C80.7407 13.5467 80.9541 13.3333 81.2183 13.3333H84.076C84.3401 13.3333 84.5535 13.5467 84.5535 13.8108V19.0512C84.551 23.2602 81.1395 26.6717 76.9305 26.6717Z" fill="#5EBEB2"/>
<path d="M69.3102 10.4781H65.9776C65.7134 10.4781 65.5 10.2648 65.5 10.0006V7.62045C65.5 3.4114 68.9114 -3.05176e-05 73.1205 -3.05176e-05H76.4557C76.7199 -3.05176e-05 76.9332 0.213344 76.9332 0.477521V3.3352C76.9332 3.59938 76.7199 3.81275 76.4557 3.81275H73.1205C71.0172 3.81275 69.3102 5.51974 69.3102 7.62299V10.4781Z" fill="#5EBEB2"/>
<path d="M76.93 17.1461H73.1198V14.2884C73.1198 12.1877 71.4103 10.4782 69.3096 10.4782V6.66792C73.511 6.66792 76.93 10.087 76.93 14.2884V17.1461Z" fill="#5EBEB2"/>
<path d="M76.4529 19.0512H15.9668V15.241H76.9305V18.5737C76.9305 18.8378 76.7171 19.0512 76.4529 19.0512Z" fill="#5EBEB2"/>
<path d="M8.22667 26.6717C4.04557 26.6082 0.725586 23.118 0.725586 18.9369V11.9083C0.725586 11.6441 0.93896 11.4307 1.20314 11.4307H4.06081C4.32498 11.4307 4.53836 11.6441 4.53836 11.9083V18.9724C4.53836 21.0452 6.16151 22.8005 8.23428 22.8614C10.3883 22.9249 12.1588 21.1925 12.1588 19.0537V11.9108C12.1588 11.6466 12.3722 11.4333 12.6364 11.4333H15.494C15.7582 11.4333 15.9716 11.6466 15.9716 11.9108V19.0512C15.9665 23.2933 12.484 26.7352 8.22667 26.6717Z" fill="#5EBEB2"/>
<path d="M9.77663 9.52552H6.91896C6.65478 9.52552 6.44141 9.31215 6.44141 9.04797V6.19029C6.44141 5.92611 6.65478 5.71274 6.91896 5.71274H9.77663C10.0408 5.71274 10.2542 5.92611 10.2542 6.19029V9.04797C10.2516 9.31215 10.0383 9.52552 9.77663 9.52552Z" fill="#5EBEB2"/>
<path d="M31.3399 53.3493C27.0775 53.4204 23.5898 49.8185 23.5898 45.5561V40.491C23.5898 40.2268 23.8032 40.0134 24.0674 40.0134H26.9251C27.1892 40.0134 27.4026 40.2268 27.4026 40.491V45.6196C27.4026 47.6034 28.8708 49.3384 30.8445 49.5238C33.1103 49.7372 35.0231 47.954 35.0231 45.7313V40.4935C35.0231 40.2294 35.2365 40.016 35.5006 40.016H38.3583C38.6225 40.016 38.8358 40.2294 38.8358 40.4935V45.7288C38.8308 49.887 35.4828 53.2782 31.3399 53.3493Z" fill="#5EBEB2"/>
<path d="M84.0751 53.3493H81.2174C80.9532 53.3493 80.7399 53.1359 80.7399 52.8717V47.7432C80.7399 45.7593 79.2717 44.0244 77.298 43.8389C75.0322 43.6256 73.1194 45.4087 73.1194 47.6314V52.8692C73.1194 53.1334 72.906 53.3467 72.6419 53.3467H69.7842C69.52 53.3467 69.3066 53.1334 69.3066 52.8692V47.8041C69.3066 43.5417 72.7943 39.9398 77.0567 40.0109C81.1996 40.082 84.5476 43.4731 84.5476 47.6314V52.8692C84.5526 53.1359 84.3393 53.3493 84.0751 53.3493Z" fill="#5EBEB2"/>
<path d="M61.2146 53.3493H58.357C58.0928 53.3493 57.8794 53.1359 57.8794 52.8717V51.4441C57.8794 49.3409 56.1724 47.6339 54.0692 47.6339H52.1641V43.8237H54.0692C58.2782 43.8237 61.6896 47.2351 61.6896 51.4441V52.8717C61.6922 53.1359 61.4788 53.3493 61.2146 53.3493Z" fill="#5EBEB2"/>
<path d="M52.1657 47.6339H48.3555V43.8237H52.1657C54.1216 43.8237 55.7371 42.3428 55.9531 40.4427C55.981 40.1989 56.1817 40.0134 56.4255 40.0134H59.2934C59.5702 40.0134 59.7887 40.2497 59.7709 40.5266C59.5042 44.4892 56.1944 47.6339 52.1657 47.6339Z" fill="#5EBEB2"/>
<path d="M50.2614 47.6339H46.9287C46.6645 47.6339 46.4512 47.4206 46.4512 47.1564V34.7731C46.4512 34.5089 46.6645 34.2955 46.9287 34.2955H49.7864C50.0506 34.2955 50.2639 34.5089 50.2639 34.7731V47.6339H50.2614Z" fill="#5EBEB2"/>
<path d="M6.27016 49.539H1.20509C0.940913 49.539 0.727539 49.3257 0.727539 49.0615V46.2038C0.727539 45.9396 0.940913 45.7263 1.20509 45.7263H6.33366C8.31752 45.7263 10.0524 44.2581 10.2379 42.2818C10.4512 40.016 8.66806 38.1058 6.44543 38.1058H1.20763C0.943456 38.1058 0.730082 37.8924 0.730082 37.6282V34.7706C0.730082 34.5064 0.943456 34.293 1.20763 34.293H6.44543C10.6037 34.293 13.9948 37.6409 14.0659 41.7839C14.1345 46.0514 10.5325 49.539 6.27016 49.539Z" fill="#5EBEB2"/>
<path d="M15.4915 53.3493H12.6338C12.3696 53.3493 12.1563 53.1359 12.1563 52.8718V51.4442C12.1563 50.324 11.6635 49.2622 10.81 48.5382L9.35449 47.3037L11.8184 44.3978L13.2714 45.6298C14.9784 47.0776 15.964 49.2063 15.964 51.4442V52.8692C15.969 53.1359 15.7557 53.3493 15.4915 53.3493Z" fill="#5EBEB2"/>
<path d="M4.06081 53.3493H1.20314C0.93896 53.3493 0.725586 53.1359 0.725586 52.8717V46.2038C0.725586 45.9396 0.93896 45.7263 1.20314 45.7263H4.53836V52.8692C4.53836 53.1359 4.32498 53.3493 4.06081 53.3493Z" fill="#5EBEB2"/>
<path d="M159.806 38.1024H122.829C114.416 38.1024 107.458 31.3583 107.415 22.9452C107.37 14.5043 114.225 7.62045 122.656 7.62045H129.324C129.85 7.62045 130.277 8.0472 130.277 8.57301V14.2884C130.277 14.8142 129.85 15.2409 129.324 15.2409H122.778C118.592 15.2409 115.097 18.5635 115.036 22.7496C114.975 27.0019 118.417 30.4819 122.656 30.4819H153.13C153.133 30.4819 153.138 30.4794 153.138 30.4743C153.135 26.5599 150.164 23.3263 146.358 22.9071C145.878 22.8538 145.518 22.4448 145.518 21.9622V16.2265C145.518 15.6804 145.977 15.2384 146.523 15.274C154.459 15.7947 160.758 22.4169 160.758 30.4819V37.1498C160.758 37.6756 160.332 38.1024 159.806 38.1024Z" fill="#1B607B"/>
<path d="M144.619 15.2409H138.88C138.334 15.2409 137.892 14.7812 137.928 14.235C138.449 6.29957 145.071 -3.05176e-05 153.136 -3.05176e-05H159.804C160.329 -3.05176e-05 160.756 0.426716 160.756 0.95253V6.66789C160.756 7.1937 160.329 7.62045 159.804 7.62045H153.138C149.221 7.62045 145.983 10.5924 145.563 14.4001C145.51 14.8802 145.101 15.2409 144.619 15.2409Z" fill="#1B607B"/>
<path d="M160.759 52.3603V46.6221C160.759 46.1395 161.119 45.7305 161.6 45.6772C165.407 45.258 168.379 42.0219 168.379 38.1024V31.4345C168.379 30.9087 168.806 30.4819 169.332 30.4819H175.047C175.573 30.4819 176 30.9087 176 31.4345V38.1024C176 46.1674 169.703 52.7896 161.765 53.3104C161.219 53.3459 160.759 52.9065 160.759 52.3603Z" fill="#1B607B"/>
<path d="M136.945 22.8614H131.23C130.704 22.8614 130.277 22.4347 130.277 21.9089V16.1935C130.277 15.6677 130.704 15.2409 131.23 15.2409H136.945C137.471 15.2409 137.898 15.6677 137.898 16.1935V21.9089C137.898 22.4347 137.471 22.8614 136.945 22.8614Z" fill="#5EBEB2"/>
</svg>
