<svg width="108" height="84" viewBox="0 0 108 84" fill="none" xmlns="http://www.w3.org/2000/svg">
<path d="M82.1423 59.8846H24.3655C11.2202 59.8846 0.349078 49.3469 0.281605 36.2016C0.210163 23.0126 10.9225 12.2566 24.0956 12.2566H34.5143C35.3358 12.2566 36.0026 12.9234 36.0026 13.745V22.6752C36.0026 23.4968 35.3358 24.1636 34.5143 24.1636H24.2861C17.7452 24.1636 12.2839 29.355 12.1886 35.896C12.0934 42.5401 17.4714 47.9776 24.0956 47.9776H71.7118C71.7157 47.9776 71.7237 47.9736 71.7237 47.9657C71.7197 41.8495 67.076 36.7969 61.1304 36.142C60.3803 36.0587 59.8167 35.4197 59.8167 34.6656V25.7036C59.8167 24.8502 60.535 24.1596 61.3884 24.2152C73.7876 25.0288 83.6307 35.376 83.6307 47.9776V58.3962C83.6307 59.2178 82.9639 59.8846 82.1423 59.8846Z" fill="#1B607B"/>
<path d="M58.4116 24.1636H49.4456C48.5923 24.1636 47.9017 23.4452 47.9572 22.5919C48.7709 10.1927 59.1181 0.349609 71.7197 0.349609H82.1383C82.9599 0.349609 83.6267 1.0164 83.6267 1.83798V10.7682C83.6267 11.5898 82.9599 12.2566 82.1383 12.2566H71.7236C65.6034 12.2566 60.5429 16.9003 59.8881 22.8499C59.8047 23.6 59.1657 24.1636 58.4116 24.1636Z" fill="#1B607B"/>
<path d="M83.6304 82.1625V73.1966C83.6304 72.4424 84.194 71.8035 84.9441 71.7201C90.8936 71.0652 95.5374 66.0087 95.5374 59.8845V49.4659C95.5374 48.6443 96.2042 47.9775 97.0258 47.9775H105.956C106.778 47.9775 107.444 48.6443 107.444 49.4659V59.8845C107.444 72.4861 97.6052 82.8333 85.2021 83.6469C84.3488 83.7025 83.6304 83.0159 83.6304 82.1625Z" fill="#1B607B"/>
<path d="M46.4211 36.0706H37.4908C36.6692 36.0706 36.0024 35.4038 36.0024 34.5822V25.6519C36.0024 24.8304 36.6692 24.1636 37.4908 24.1636H46.4211C47.2427 24.1636 47.9095 24.8304 47.9095 25.6519V34.5822C47.9095 35.4038 47.2427 36.0706 46.4211 36.0706Z" fill="#5EBEB2"/>
</svg>
