<svg xmlns="http://www.w3.org/2000/svg" width="61" height="60" viewBox="0 0 61 60" fill="none">
<g id="serverss 1">
<path id="Vector" d="M16.2143 45C10.297 45 5.5 40.2595 5.5 34.4118C5.5 28.564 10.297 23.8235 16.2143 23.8235C16.9246 23.8235 17.6187 23.8918 18.2904 24.0222M18.2904 24.0222C17.7177 22.4945 17.4048 20.8422 17.4048 19.1176C17.4048 11.3207 23.8007 5 31.6905 5C39.0397 5 45.0928 10.4843 45.8877 17.5374M18.2904 24.0222C19.7015 24.296 21.0132 24.8435 22.1667 25.6065M36.4524 17.568C37.9418 17.0478 39.5446 16.7647 41.2143 16.7647C42.851 16.7647 44.4234 17.0367 45.8877 17.5374M45.8877 17.5374C51.4824 19.4506 55.5 24.7028 55.5 30.8824C55.5 37.6499 50.6815 43.3052 44.25 44.6806" stroke="#0a2463" stroke-width="3.75" stroke-linecap="round" fill="#ffffff"/>
<path id="Vector_2" d="M20.5 54C20.5 53.0681 20.5 52.6022 20.6522 52.2346C20.8552 51.7446 21.2446 51.3552 21.7346 51.1522C22.1022 51 22.5681 51 23.5 51H37.5C38.4319 51 38.8978 51 39.2654 51.1522C39.7554 51.3552 40.1448 51.7446 40.3478 52.2346C40.5 52.6022 40.5 53.0681 40.5 54C40.5 54.9319 40.5 55.3978 40.3478 55.7654C40.1448 56.2554 39.7554 56.6448 39.2654 56.8478C38.8978 57 38.4319 57 37.5 57H23.5C22.5681 57 22.1022 57 21.7346 56.8478C21.2446 56.6448 20.8552 56.2554 20.6522 55.7654C20.5 55.3978 20.5 54.9319 20.5 54Z" stroke="#0a2463" stroke-width="1.5" fill="#ffffff"/>
<path id="Vector_3" d="M20.5 48C20.5 47.0681 20.5 46.6022 20.6522 46.2346C20.8552 45.7446 21.2446 45.3552 21.7346 45.1522C22.1022 45 22.5681 45 23.5 45H37.5C38.4319 45 38.8978 45 39.2654 45.1522C39.7554 45.3552 40.1448 45.7446 40.3478 46.2346C40.5 46.6022 40.5 47.0681 40.5 48C40.5 48.9319 40.5 49.3978 40.3478 49.7654C40.1448 50.2554 39.7554 50.6448 39.2654 50.8478C38.8978 51 38.4319 51 37.5 51H23.5C22.5681 51 22.1022 51 21.7346 50.8478C21.2446 50.6448 20.8552 50.2554 20.6522 49.7654C20.5 49.3978 20.5 48.9319 20.5 48Z" stroke="#0a2463" stroke-width="1.5" fill="#ffffff"/>
<path id="Vector_4" d="M20.5 42C20.5 41.0681 20.5 40.6022 20.6522 40.2346C20.8552 39.7446 21.2446 39.3552 21.7346 39.1522C22.1022 39 22.5681 39 23.5 39H37.5C38.4319 39 38.8978 39 39.2654 39.1522C39.7554 39.3552 40.1448 39.7446 40.3478 40.2346C40.5 40.6022 40.5 41.0681 40.5 42C40.5 42.9319 40.5 43.3978 40.3478 43.7654C40.1448 44.2554 39.7554 44.6448 39.2654 44.8478C38.8978 45 38.4319 45 37.5 45H23.5C22.5681 45 22.1022 45 21.7346 44.8478C21.2446 44.6448 20.8552 44.2554 20.6522 43.7654C20.5 43.3978 20.5 42.9319 20.5 42Z" stroke="#0a2463" stroke-width="1.5" fill="#ffffff"/>
<path id="Vector_5" opacity="0.5" d="M23.5 49C24.0523 49 24.5 48.5523 24.5 48C24.5 47.4477 24.0523 47 23.5 47C22.9477 47 22.5 47.4477 22.5 48C22.5 48.5523 22.9477 49 23.5 49Z" fill="#3e92cc"/>
<path id="Vector_6" opacity="0.5" d="M23.5 43C24.0523 43 24.5 42.5523 24.5 42C24.5 41.4477 24.0523 41 23.5 41C22.9477 41 22.5 41.4477 22.5 42C22.5 42.5523 22.9477 43 23.5 43Z" fill="#3e92cc"/>
<path id="Vector_7" opacity="0.5" d="M23.5 55C24.0523 55 24.5 54.5523 24.5 54C24.5 53.4477 24.0523 53 23.5 53C22.9477 53 22.5 53.4477 22.5 54C22.5 54.5523 22.9477 55 23.5 55Z" fill="#3e92cc"/>
</g>
</svg>