<svg xmlns="http://www.w3.org/2000/svg" xmlns:xlink="http://www.w3.org/1999/xlink" viewBox="0 0 622.08 605.48"><defs><style>.cls-1{mask:url(#mask);filter:url(#luminosity-noclip-4);}.cls-2,.cls-4,.cls-6{mix-blend-mode:multiply;}.cls-2{fill:url(#radial-gradient);}.cls-3{mask:url(#mask-2);filter:url(#luminosity-noclip-5);}.cls-4{fill:url(#radial-gradient-2);}.cls-5{mask:url(#mask-3);filter:url(#luminosity-noclip-6);}.cls-6{fill:url(#radial-gradient-3);}.cls-7{isolation:isolate;}.cls-8{fill:#571170;}.cls-9{mask:url(#mask-4);}.cls-10{fill:#ae4be2;opacity:0.57;mix-blend-mode:overlay;}.cls-11{mask:url(#mask-5);}.cls-12{mask:url(#mask-6);}.cls-13{fill:#34495e;}.cls-14{filter:url(#luminosity-noclip-3);}.cls-15{filter:url(#luminosity-noclip-2);}.cls-16{filter:url(#luminosity-noclip);}</style><filter id="luminosity-noclip" x="406.89" y="-8509.17" width="54.04" height="32766" filterUnits="userSpaceOnUse" color-interpolation-filters="sRGB"><feFlood flood-color="#fff" result="bg"/><feBlend in="SourceGraphic" in2="bg"/></filter><mask id="mask" x="406.89" y="-8509.17" width="54.04" height="32766" maskUnits="userSpaceOnUse"><g class="cls-16"/></mask><radialGradient id="radial-gradient" cx="433.7" cy="265.2" r="37.96" gradientUnits="userSpaceOnUse"><stop offset="0" stop-color="#fff"/><stop offset="0.02" stop-color="#f4f4f4"/><stop offset="0.12" stop-color="#bcbcbc"/><stop offset="0.23" stop-color="#8a8a8a"/><stop offset="0.33" stop-color="#5f5f5f"/><stop offset="0.44" stop-color="#3d3d3d"/><stop offset="0.55" stop-color="#222"/><stop offset="0.66" stop-color="#0f0f0f"/><stop offset="0.77" stop-color="#040404"/><stop offset="0.89"/></radialGradient><filter id="luminosity-noclip-2" x="474.54" y="-8509.17" width="13.62" height="32766" filterUnits="userSpaceOnUse" color-interpolation-filters="sRGB"><feFlood flood-color="#fff" result="bg"/><feBlend in="SourceGraphic" in2="bg"/></filter><mask id="mask-2" x="474.54" y="-8509.17" width="13.62" height="32766" maskUnits="userSpaceOnUse"><g class="cls-15"/></mask><radialGradient id="radial-gradient-2" cx="475.93" cy="267.44" r="16.89" xlink:href="#radial-gradient"/><filter id="luminosity-noclip-3" x="434.85" y="-8509.17" width="26.08" height="32766" filterUnits="userSpaceOnUse" color-interpolation-filters="sRGB"><feFlood flood-color="#fff" result="bg"/><feBlend in="SourceGraphic" in2="bg"/></filter><mask id="mask-3" x="434.85" y="-8509.17" width="26.08" height="32766" maskUnits="userSpaceOnUse"><g class="cls-14"/></mask><radialGradient id="radial-gradient-3" cx="449.79" cy="321.74" r="17.48" xlink:href="#radial-gradient"/><filter id="luminosity-noclip-4" x="406.89" y="252.47" width="54.04" height="40.07" filterUnits="userSpaceOnUse" color-interpolation-filters="sRGB"><feFlood flood-color="#fff" result="bg"/><feBlend in="SourceGraphic" in2="bg"/></filter><mask id="mask-4" x="406.89" y="252.47" width="54.04" height="40.07" maskUnits="userSpaceOnUse"><g class="cls-1"><path class="cls-2" d="M460.93,284.85v7.69L436,269.06a7.3,7.3,0,0,0-5-2H406.89V256.93a4.46,4.46,0,0,1,4.46-4.46h19.87a9.35,9.35,0,0,1,6.7,2.83l18.94,19.53A14.37,14.37,0,0,1,460.93,284.85Z"/></g></mask><filter id="luminosity-noclip-5" x="474.54" y="252.47" width="13.62" height="27.52" filterUnits="userSpaceOnUse" color-interpolation-filters="sRGB"><feFlood flood-color="#fff" result="bg"/><feBlend in="SourceGraphic" in2="bg"/></filter><mask id="mask-5" x="474.54" y="252.47" width="13.62" height="27.52" maskUnits="userSpaceOnUse"><g class="cls-3"><path class="cls-4" d="M488.16,255.68V275.2a4.8,4.8,0,0,1-4.79,4.8h-8.83V252.47H485A3.21,3.21,0,0,1,488.16,255.68Z"/></g></mask><filter id="luminosity-noclip-6" x="434.85" y="305.64" width="26.08" height="47.37" filterUnits="userSpaceOnUse" color-interpolation-filters="sRGB"><feFlood flood-color="#fff" result="bg"/><feBlend in="SourceGraphic" in2="bg"/></filter><mask id="mask-6" x="434.85" y="305.64" width="26.08" height="47.37" maskUnits="userSpaceOnUse"><g class="cls-5"><path class="cls-6" d="M460.93,344.62V353l-23.8-23.8a7.79,7.79,0,0,1-2.28-5.51V307.93a3.25,3.25,0,0,1,.93-2.29Z"/></g></mask></defs><g class="cls-7"><g id="Layer_1" data-name="Layer 1"><path class="cls-8" d="M488.16,255.68V275.2a4.8,4.8,0,0,1-4.79,4.8h-16.6s-5.84,1.29-5.84,7.33V258.18a5.71,5.71,0,0,1,5.71-5.71H485A3.21,3.21,0,0,1,488.16,255.68Z"/><path class="cls-8" d="M460.93,284.85V353l-23.8-23.8a7.79,7.79,0,0,1-2.28-5.51V307.93a3.28,3.28,0,0,1,3.28-3.28h15.39a2.28,2.28,0,0,0,1.63-3.88l-18.54-19a6,6,0,0,0-4.28-1.8H411.27a4.38,4.38,0,0,1-4.38-4.38V256.93a4.46,4.46,0,0,1,4.46-4.46h19.87a9.35,9.35,0,0,1,6.7,2.83l18.94,19.53A14.37,14.37,0,0,1,460.93,284.85Z"/><g class="cls-9"><path class="cls-10" d="M460.93,284.85v7.69L436,269.06a7.3,7.3,0,0,0-5-2H406.89V256.93a4.46,4.46,0,0,1,4.46-4.46h19.87a9.35,9.35,0,0,1,6.7,2.83l18.94,19.53A14.37,14.37,0,0,1,460.93,284.85Z"/></g><g class="cls-11"><path class="cls-10" d="M488.16,255.68V275.2a4.8,4.8,0,0,1-4.79,4.8h-8.83V252.47H485A3.21,3.21,0,0,1,488.16,255.68Z"/></g><g class="cls-12"><path class="cls-10" d="M460.93,344.62V353l-23.8-23.8a7.79,7.79,0,0,1-2.28-5.51V307.93a3.25,3.25,0,0,1,.93-2.29Z"/></g><path class="cls-8" d="M298.34,274.62a7,7,0,0,0-2,5v35.93a15.67,15.67,0,0,1-2.06,7.77L293,325.55a15.4,15.4,0,0,0,7.82-2.1,15.83,15.83,0,0,0,5.67-5.68,14.78,14.78,0,0,0,2.06-7.77V272.6H303.3A6.85,6.85,0,0,0,298.34,274.62Z"/><path class="cls-8" d="M338.85,317a4.92,4.92,0,0,0-3.57,1.47,4.79,4.79,0,0,0-1.47,3.53,5.06,5.06,0,0,0,5,5,4.79,4.79,0,0,0,3.53-1.47,4.92,4.92,0,0,0,1.47-3.57,5,5,0,0,0-5-5Z"/><path class="cls-8" d="M351.12,317a5,5,0,0,0-5,5,5,5,0,0,0,1.47,3.57,4.83,4.83,0,0,0,3.53,1.47,5.06,5.06,0,0,0,5.05-5,4.83,4.83,0,0,0-1.47-3.53A4.92,4.92,0,0,0,351.12,317Z"/><path class="cls-8" d="M367.89,266.51a4.82,4.82,0,0,0,3.53-1.48,5.1,5.1,0,0,0,1.47-3.57,5,5,0,0,0-5-5,5.16,5.16,0,0,0-3.57,1.47,4.83,4.83,0,0,0-1.47,3.53,5.18,5.18,0,0,0,5,5.05Z"/><path class="cls-8" d="M379.07,266.51a4.73,4.73,0,0,0,3.57-1.52,5,5,0,0,0,0-7.06,4.94,4.94,0,0,0-3.57-1.47,5,5,0,0,0-5,5,5.1,5.1,0,0,0,1.47,3.57A4.82,4.82,0,0,0,379.07,266.51Z"/><path class="cls-8" d="M374,274.62a6.81,6.81,0,0,0-2,5v23H356.33V281.42h0V272.6h-5.21a6.69,6.69,0,0,0-4.92,2,6.81,6.81,0,0,0-2,5v23H328.26V252.47h-4.87a6.15,6.15,0,0,0-4.58,1.89,6.35,6.35,0,0,0-1.89,4.67v53.7h67.19V272.6H378.9A6.69,6.69,0,0,0,374,274.62Z"/><path class="cls-13" d="M135.56,350.81a1.57,1.57,0,0,0,1.29-.51,2.66,2.66,0,0,0,.41-1.68V338.26h1.6v10.36a4.4,4.4,0,0,1-.74,2.8,2.79,2.79,0,0,1-2.29.92,7.82,7.82,0,0,1-1.91-.27l.33-1.43A6.71,6.71,0,0,0,135.56,350.81Z"/><path class="cls-13" d="M146.63,346.28v1.53h-4.94V332.57h1.6v13.71Z"/><path class="cls-13" d="M146,346.49a1,1,0,0,1,.64-.21h4.16v1.53h-4.16a1,1,0,0,1-.65-.2.71.71,0,0,1-.24-.56A.66.66,0,0,1,146,346.49Z"/><path class="cls-13" d="M150.14,346.49a1,1,0,0,1,.65-.21h4.15v1.53h-4.15a1,1,0,0,1-.66-.2.74.74,0,0,1-.23-.56A.68.68,0,0,1,150.14,346.49Z"/><path class="cls-13" d="M154.3,346.49a1,1,0,0,1,.64-.21h4.16v1.53h-4.16a1,1,0,0,1-.65-.2.71.71,0,0,1-.24-.56A.66.66,0,0,1,154.3,346.49Z"/><path class="cls-13" d="M158.45,346.49a1,1,0,0,1,.65-.21h4.15v1.53H159.1a1,1,0,0,1-.66-.2.71.71,0,0,1-.24-.56A.69.69,0,0,1,158.45,346.49Z"/><path class="cls-13" d="M162.61,346.49a1,1,0,0,1,.64-.21h4.16v1.53h-4.16a1,1,0,0,1-.65-.2.71.71,0,0,1-.24-.56A.66.66,0,0,1,162.61,346.49Z"/><path class="cls-13" d="M166.76,346.49a1,1,0,0,1,.65-.21h4.15v1.53h-4.15a1,1,0,0,1-.66-.2.71.71,0,0,1-.24-.56A.69.69,0,0,1,166.76,346.49Z"/><path class="cls-13" d="M185.21,346.28v1.53c-1.94,0-3.25-.68-4-2.05a4.08,4.08,0,0,1-1.82,1.52,6.68,6.68,0,0,1-2.79.53h-5.09a.78.78,0,0,1-.59-.22.76.76,0,0,1-.22-.54.73.73,0,0,1,.22-.54.75.75,0,0,1,.59-.23h5.09a4.28,4.28,0,0,0,2.74-.76,2.69,2.69,0,0,0,.94-2.23,3.5,3.5,0,0,0-2-3.1,14.1,14.1,0,0,0-5.89-1.45l-.2-2.1a22.64,22.64,0,0,1,4.47-2.59,23.22,23.22,0,0,1,5.17-1.57l.31,1.54a26.34,26.34,0,0,0-4.82,1.43,17.18,17.18,0,0,0-3.66,2,13.51,13.51,0,0,1,6.15,2,4.54,4.54,0,0,1,2.08,3.89v.31Q182.24,346.32,185.21,346.28Z"/><path class="cls-13" d="M191,345.43a3.38,3.38,0,0,0,2.51.85v1.53q-3,0-4-2.16a3.87,3.87,0,0,1-1.69,1.61,5.71,5.71,0,0,1-2.61.55.91.91,0,0,1-.64-.22.76.76,0,0,1-.25-.59.66.66,0,0,1,.24-.53,1,1,0,0,1,.65-.19c2.24,0,3.37-1.15,3.37-3.43v-4.59h1.6v4.59A3.54,3.54,0,0,0,191,345.43Zm-4-9.64a.94.94,0,0,1-.29-.69.87.87,0,0,1,.29-.67.93.93,0,0,1,.68-.28.91.91,0,0,1,.68.28.89.89,0,0,1,.28.67,1,1,0,0,1-.28.69.92.92,0,0,1-.68.29A.94.94,0,0,1,187,335.79Zm3.32,0a1,1,0,0,1-.29-.69.9.9,0,0,1,.29-.67,1,1,0,0,1,.69-.28,1,1,0,0,1,.95,1,1,1,0,0,1-.28.69.9.9,0,0,1-.67.29A1,1,0,0,1,190.34,335.79Z"/><path class="cls-13" d="M196.89,338.26h1.6v9.55h-5a.91.91,0,0,1-.64-.22.76.76,0,0,1-.25-.59.66.66,0,0,1,.24-.53,1,1,0,0,1,.65-.19h3.37Zm-1.08,13.08a.92.92,0,0,1-.3-.7.91.91,0,0,1,.3-.68,1,1,0,0,1,1.64.68,1,1,0,0,1-.28.69.94.94,0,0,1-.68.29A1,1,0,0,1,195.81,351.34Z"/><path class="cls-13" d="M213.44,332.57v15.24H201.31v-1.53h4.78l-3.49-11.22h1.66l3.49,11.22h4.09V332.57Z"/><path class="cls-13" d="M216.45,332.57h1.6v15.24h-1.6Z"/><path class="cls-13" d="M231.37,336.87v9.37a8.15,8.15,0,0,1-1.36,5.05,4.72,4.72,0,0,1-4,1.72,11.28,11.28,0,0,1-2.24-.23l0-1.5a14.54,14.54,0,0,0,2,.17,3.68,3.68,0,0,0,3.08-1.21,6.81,6.81,0,0,0,.93-4.05v-.56a4.34,4.34,0,0,1-1.61,1.6,4.43,4.43,0,0,1-2.27.58,4.12,4.12,0,0,1-2.32-.68,4.82,4.82,0,0,1-1.66-1.88,5.71,5.71,0,0,1-.61-2.65,5.89,5.89,0,0,1,.73-3,5.14,5.14,0,0,1,2.21-2,7.84,7.84,0,0,1,3.56-.73Zm-3.26,8.91a3.56,3.56,0,0,0,1.24-1.34,3.72,3.72,0,0,0,.46-1.84v-4.13h-2a5.28,5.28,0,0,0-3.67,1.11,3.87,3.87,0,0,0-1.22,3,4,4,0,0,0,.46,1.92,3.36,3.36,0,0,0,3,1.78A3.2,3.2,0,0,0,228.11,345.78Z"/><path class="cls-13" d="M240.22,351.5q-1.84-1.44-1.85-4.7a15.17,15.17,0,0,1,.6-3.93h1.6a14.16,14.16,0,0,0-.62,3.8,4.41,4.41,0,0,0,1.38,3.68,5.48,5.48,0,0,0,3.48,1.08q4.86,0,4.86-5.38V332.57h1.6v13.48a7,7,0,0,1-1.71,5.18,6.45,6.45,0,0,1-4.75,1.72A7.24,7.24,0,0,1,240.22,351.5Z"/><path class="cls-13" d="M266.19,347.81h-2.14a6.41,6.41,0,0,1-1.63,3.88,4.91,4.91,0,0,1-3.63,1.32,11.31,11.31,0,0,1-2.22-.23v-1.5a14.54,14.54,0,0,0,2,.17,4,4,0,0,0,2.75-.85,4.47,4.47,0,0,0,1.18-2.79h-1.93a8.16,8.16,0,0,1-3.71-.74,4.85,4.85,0,0,1-2.1-2,5.5,5.5,0,0,1-.65-2.67,5.75,5.75,0,0,1,.67-2.74,5.11,5.11,0,0,1,2.13-2.06,7.78,7.78,0,0,1,3.7-.78h3.53v9.43h2.06Zm-3.62-1.53v-7.81h-2a5.23,5.23,0,0,0-3.73,1.12,3.87,3.87,0,0,0,0,5.57,5.36,5.36,0,0,0,3.76,1.12Z"/><path class="cls-13" d="M265.56,346.49a1,1,0,0,1,.65-.21h4.15v1.53h-4.15a1,1,0,0,1-.66-.2.71.71,0,0,1-.24-.56A.69.69,0,0,1,265.56,346.49Z"/><path class="cls-13" d="M269.72,346.49a1,1,0,0,1,.64-.21h4.16v1.53h-4.16a.94.94,0,0,1-.65-.2.71.71,0,0,1-.24-.56A.66.66,0,0,1,269.72,346.49Z"/><path class="cls-13" d="M273.87,346.49a1,1,0,0,1,.65-.21h4.15v1.53h-4.15a1,1,0,0,1-.66-.2.71.71,0,0,1-.24-.56A.69.69,0,0,1,273.87,346.49Z"/><path class="cls-13" d="M278,346.49a1,1,0,0,1,.64-.21h4.16v1.53h-4.16a.94.94,0,0,1-.65-.2.71.71,0,0,1-.24-.56A.66.66,0,0,1,278,346.49Z"/><path class="cls-13" d="M282.18,346.49a1,1,0,0,1,.65-.21H287v1.53h-4.15a1,1,0,0,1-.66-.2.71.71,0,0,1-.24-.56A.69.69,0,0,1,282.18,346.49Z"/><path class="cls-13" d="M286.34,346.49a1,1,0,0,1,.64-.21h4.16v1.53H287a.94.94,0,0,1-.65-.2.71.71,0,0,1-.24-.56A.66.66,0,0,1,286.34,346.49Z"/><path class="cls-13" d="M290.49,346.49a1,1,0,0,1,.65-.21h4.15v1.53h-4.15a1,1,0,0,1-.66-.2.71.71,0,0,1-.24-.56A.69.69,0,0,1,290.49,346.49Z"/><path class="cls-13" d="M294.65,346.49a1,1,0,0,1,.64-.21h4.16v1.53h-4.16a.94.94,0,0,1-.65-.2.71.71,0,0,1-.24-.56A.66.66,0,0,1,294.65,346.49Z"/><path class="cls-13" d="M305.24,345.43a3.38,3.38,0,0,0,2.51.85v1.53c-2,0-3.31-.72-4-2.16a3.87,3.87,0,0,1-1.69,1.61,5.68,5.68,0,0,1-2.61.55,1,1,0,0,1-.65-.2.71.71,0,0,1-.24-.56.68.68,0,0,1,.24-.56,1,1,0,0,1,.65-.21c2.25,0,3.37-1.15,3.37-3.43V332.57h1.6v10.28A3.59,3.59,0,0,0,305.24,345.43Z"/><path class="cls-13" d="M321.34,346.28v1.53H307.75a.77.77,0,0,1-.57-.23.78.78,0,0,1-.24-.58.64.64,0,0,1,.23-.5.88.88,0,0,1,.58-.22h9.77a14.42,14.42,0,0,1-.4-1.79c0-.15-.05-.37-.1-.64a10.78,10.78,0,0,0-.83-2.81,4.17,4.17,0,0,0-1.39-1.62,5.46,5.46,0,0,0-1.72-.74,8.61,8.61,0,0,0-2-.23,7.2,7.2,0,0,0-2,.27l-.29-1.56a9.41,9.41,0,0,1,2.43-.29,9.32,9.32,0,0,1,2.41.31,6.92,6.92,0,0,1,2.14.95,5.46,5.46,0,0,1,1.79,2.08,11.92,11.92,0,0,1,1,3.39c.15.81.28,1.4.38,1.74a1.34,1.34,0,0,0,.46.73,1.57,1.57,0,0,0,.9.21Z"/><path class="cls-13" d="M327.14,345.43a3.38,3.38,0,0,0,2.51.85v1.53q-3,0-4-2.16a3.92,3.92,0,0,1-1.69,1.61,5.71,5.71,0,0,1-2.61.55.94.94,0,0,1-.65-.2.71.71,0,0,1-.24-.56.68.68,0,0,1,.24-.56.94.94,0,0,1,.65-.21c2.24,0,3.37-1.15,3.37-3.43V332.57h1.6v10.28A3.54,3.54,0,0,0,327.14,345.43Z"/><path class="cls-13" d="M333,332.57h1.59v15.24h-5a.94.94,0,0,1-.64-.2.69.69,0,0,1-.25-.56.66.66,0,0,1,.25-.56,1,1,0,0,1,.64-.21H333Z"/><path class="cls-13" d="M341.82,350.81a1.57,1.57,0,0,0,1.29-.51,2.65,2.65,0,0,0,.42-1.68V338.26h1.6v10.36a4.39,4.39,0,0,1-.75,2.8,2.79,2.79,0,0,1-2.29.92,7.88,7.88,0,0,1-1.91-.27l.33-1.43A6.8,6.8,0,0,0,341.82,350.81Z"/><path class="cls-13" d="M352.9,346.28v1.53H348V332.57h1.6v13.71Z"/><path class="cls-13" d="M352.25,346.49a1,1,0,0,1,.65-.21h4.15v1.53H352.9a1,1,0,0,1-.66-.2.71.71,0,0,1-.24-.56A.69.69,0,0,1,352.25,346.49Z"/><path class="cls-13" d="M356.41,346.49a1,1,0,0,1,.64-.21h4.15v1.53h-4.15a.92.92,0,0,1-.65-.2.71.71,0,0,1-.24-.56A.66.66,0,0,1,356.41,346.49Z"/><path class="cls-13" d="M360.56,346.49a1,1,0,0,1,.64-.21h4.16v1.53H361.2a1,1,0,0,1-.65-.2.71.71,0,0,1-.24-.56A.69.69,0,0,1,360.56,346.49Z"/><path class="cls-13" d="M364.72,346.49a1,1,0,0,1,.64-.21h4.15v1.53h-4.15a.92.92,0,0,1-.65-.2.71.71,0,0,1-.24-.56A.66.66,0,0,1,364.72,346.49Z"/><path class="cls-13" d="M368.87,346.49a1,1,0,0,1,.64-.21h4.16v1.53h-4.16a1,1,0,0,1-.65-.2.71.71,0,0,1-.24-.56A.66.66,0,0,1,368.87,346.49Z"/><path class="cls-13" d="M379.46,345.43a3.43,3.43,0,0,0,2.52.85v1.53q-3,0-4-2.16a3.92,3.92,0,0,1-1.69,1.61,5.71,5.71,0,0,1-2.61.55.91.91,0,0,1-.64-.22.76.76,0,0,1-.25-.59.69.69,0,0,1,.23-.53,1,1,0,0,1,.66-.19c2.24,0,3.36-1.15,3.36-3.43v-4.59h1.6v4.59A3.59,3.59,0,0,0,379.46,345.43Zm-4,5.9a.94.94,0,0,1-.29-.69.9.9,0,0,1,.29-.68,1,1,0,0,1,1.64.68,1,1,0,0,1-.28.69.94.94,0,0,1-1.36,0Zm3.32,0a1,1,0,0,1-.29-.69.94.94,0,0,1,.29-.68,1,1,0,0,1,.69-.28,1,1,0,0,1,.67.28.93.93,0,0,1,.28.68,1,1,0,0,1-.28.69.92.92,0,0,1-.67.29A.94.94,0,0,1,378.8,351.33Z"/><path class="cls-13" d="M385.34,338.26h1.6v9.55h-5a1,1,0,0,1-.65-.22.8.8,0,0,1-.25-.59.66.66,0,0,1,.24-.53,1,1,0,0,1,.66-.19h3.36Zm-1.7-2.47a1,1,0,0,1-.29-.69.9.9,0,0,1,.29-.67.94.94,0,0,1,.69-.28.91.91,0,0,1,.67.28.89.89,0,0,1,.28.67,1,1,0,0,1-.28.69.92.92,0,0,1-.67.29A.94.94,0,0,1,383.64,335.79Zm3.32,0a1,1,0,0,1-.29-.69.9.9,0,0,1,.29-.67,1,1,0,0,1,.69-.28,1,1,0,0,1,1,1,1,1,0,0,1-.28.69.9.9,0,0,1-.67.29A1,1,0,0,1,387,335.79Z"/><polygon class="cls-8" points="133.92 279.77 144.89 279.77 144.89 312.73 152.48 312.73 152.48 279.77 163.45 279.77 163.45 272.45 133.92 272.45 133.92 279.77"/><rect class="cls-8" x="168.75" y="272.45" width="7.87" height="40.28"/><polygon class="cls-8" points="204.99 272.45 197.28 289.8 189.58 272.45 181.63 272.45 193.49 297.19 193.49 312.73 201.08 312.73 201.08 297.19 212.94 272.45 204.99 272.45"/><path class="cls-8" d="M226.43,272.45,211,312.73h8.17l2.26-6.45h14.76l2.26,6.45h8.17l-15.4-40.28ZM224,299l4.81-13.74L233.66,299Z"/><path class="cls-8" d="M274.33,312.73h9.2l-9.63-16.6a10,10,0,0,0,2.65-1.1,10.29,10.29,0,0,0,3.89-4.21,15.13,15.13,0,0,0,0-12.69,10.16,10.16,0,0,0-3.89-4.21,11.27,11.27,0,0,0-5.86-1.49H253.06v40.3h7.59v-16.2h4.6Zm-13.68-33h9.44A3.51,3.51,0,0,1,273,281a5.26,5.26,0,0,1,1.07,3.44,5.38,5.38,0,0,1-1.1,3.43,3.47,3.47,0,0,1-2.84,1.3h-9.44Z"/></g></g></svg>