<svg width="16" height="16" viewBox="0 0 16 16" fill="none" xmlns="http://www.w3.org/2000/svg">
<path id="Vector" fill-rule="evenodd" clip-rule="evenodd" d="M13.0619 1.24254C12.1705 1.40111 10.9687 1.80009 9.28205 2.3623L5.46393 3.635C4.10772 4.08707 3.12541 4.415 2.43159 4.71009C1.7062 5.01861 1.44816 5.23367 1.36435 5.37783C1.10622 5.82185 1.10622 6.37025 1.36435 6.81428C1.44816 6.95844 1.7062 7.17349 2.43159 7.48201C3.12541 7.77711 4.10772 8.10503 5.46393 8.55711C5.48535 8.56424 5.50649 8.57128 5.52738 8.57822C5.8978 8.70144 6.18576 8.79723 6.43348 8.96306C6.67215 9.12284 6.87717 9.32786 7.03694 9.56652C7.20277 9.81424 7.29857 10.1022 7.42178 10.4726C7.42872 10.4935 7.43576 10.5147 7.4429 10.5361C7.89497 11.8923 8.22289 12.8746 8.51799 13.5684C8.82651 14.2938 9.04156 14.5518 9.18572 14.6356C9.62975 14.8938 10.1781 14.8938 10.6222 14.6356C10.7663 14.5518 10.9814 14.2938 11.2899 13.5684C11.585 12.8746 11.9129 11.8923 12.365 10.5361L13.6377 6.71796C14.1999 5.03134 14.5989 3.82954 14.7575 2.93813C14.9168 2.04247 14.795 1.66202 14.5665 1.43349C14.338 1.20497 13.9575 1.08321 13.0619 1.24254ZM12.8568 0.0898815C13.849 -0.0866133 14.7425 -0.0461618 15.3944 0.605646C16.0462 1.25745 16.0866 2.15103 15.9101 3.14318C15.7347 4.12933 15.3069 5.41268 14.7653 7.03748L13.4663 10.9344C13.0255 12.2567 12.6831 13.2841 12.3673 14.0266C12.0626 14.7429 11.7244 15.3491 11.2106 15.6478C10.4028 16.1174 9.40511 16.1174 8.59731 15.6478C8.08352 15.3491 7.74527 14.7429 7.44063 14.0266C7.12481 13.2841 6.78236 12.2567 6.34162 10.9345L6.33222 10.9063C6.17782 10.4431 6.13075 10.3174 6.06406 10.2178C5.98944 10.1063 5.89367 10.0106 5.7822 9.93594C5.68259 9.86926 5.55694 9.82219 5.09371 9.66778L5.06549 9.65837C3.74328 9.21764 2.71591 8.87518 1.97337 8.55937C1.25711 8.25473 0.650901 7.91647 0.352211 7.40269C-0.117404 6.59489 -0.117404 5.59721 0.352212 4.78942C0.650902 4.27563 1.25712 3.93738 1.97337 3.63274C2.71592 3.31692 3.74331 2.97446 5.06554 2.53372L8.96254 1.23472C10.5873 0.693104 11.8707 0.26531 12.8568 0.0898815ZM12.7091 3.29548C12.9364 3.52535 12.9344 3.89598 12.7045 4.12331L9.58251 7.21091C9.35265 7.43824 8.98201 7.43619 8.75468 7.20632C8.52735 6.97645 8.5294 6.60582 8.75927 6.37849L11.8813 3.29089C12.1111 3.06356 12.4818 3.06561 12.7091 3.29548Z" fill="#FFFDFD"/>
</svg>
