<svg width="20" height="21" viewBox="0 0 20 21" fill="none" xmlns="http://www.w3.org/2000/svg">
<path fill-rule="evenodd" clip-rule="evenodd" d="M16.4608 4.53265C16.5329 4.45024 16.588 4.35445 16.6231 4.25074C16.6581 4.14703 16.6724 4.03744 16.6651 3.92821C16.6578 3.81899 16.629 3.71227 16.5804 3.61416C16.5319 3.51605 16.4645 3.42846 16.3821 3.3564C16.2997 3.28433 16.2039 3.22921 16.1002 3.19416C15.9965 3.15912 15.8869 3.14485 15.7776 3.15216C15.6684 3.15947 15.5617 3.18823 15.4636 3.23678C15.3655 3.28534 15.2779 3.35274 15.2058 3.43515L10.9475 8.30181L7.33333 3.48348C7.25571 3.37998 7.15506 3.29598 7.03934 3.23812C6.92363 3.18027 6.79604 3.15015 6.66667 3.15015H3.33333C3.17857 3.15015 3.02687 3.19324 2.89522 3.2746C2.76358 3.35597 2.65719 3.47238 2.58798 3.6108C2.51877 3.74922 2.48947 3.90418 2.50337 4.05832C2.51727 4.21245 2.57381 4.35967 2.66667 4.48348L8.03083 11.6351L3.53917 16.7685C3.4671 16.8509 3.41198 16.9467 3.37693 17.0504C3.34189 17.1541 3.32762 17.2637 3.33493 17.3729C3.34225 17.4821 3.371 17.5889 3.41955 17.687C3.46811 17.7851 3.53551 17.8727 3.61792 17.9447C3.70032 18.0168 3.79611 18.0719 3.89982 18.107C4.00353 18.142 4.11313 18.1563 4.22235 18.149C4.33158 18.1417 4.43829 18.1129 4.5364 18.0643C4.63452 18.0158 4.7221 17.9484 4.79417 17.866L9.0525 12.9985L12.6667 17.8168C12.7443 17.9203 12.8449 18.0043 12.9607 18.0622C13.0764 18.12 13.204 18.1501 13.3333 18.1501H16.6667C16.8214 18.1501 16.9731 18.1071 17.1048 18.0257C17.2364 17.9443 17.3428 17.8279 17.412 17.6895C17.4812 17.5511 17.5105 17.3961 17.4966 17.242C17.4827 17.0878 17.4262 16.9406 17.3333 16.8168L11.9692 9.66515L16.4608 4.53265ZM13.75 16.4835L5 4.81681H6.25L15 16.4835H13.75Z" fill="#777777"/>
</svg>
